<?xml version="1.0" encoding="utf-8"?>
<!-- Generator: Adobe Illustrator 16.0.3, SVG Export Plug-In . SVG Version: 6.00 Build 0)  -->
<!DOCTYPE svg PUBLIC "-//W3C//DTD SVG 1.1//EN" "http://www.w3.org/Graphics/SVG/1.1/DTD/svg11.dtd">
<svg version="1.1" xmlns="http://www.w3.org/2000/svg" xmlns:xlink="http://www.w3.org/1999/xlink" x="0px" y="0px"
	 viewBox="0 0 960 794.444" enable-background="new 0 0 960 794.444" xml:space="preserve">
<g id="Layer_3" display="none">
	<rect x="-0.5" y="67.889" display="inline" stroke="#FFFFFF" stroke-miterlimit="10"/>
</g>
<g id="Layer_2">
	<g>
		
			<ellipse fill="#FCA306" stroke="#FFFFFF" stroke-width="11" stroke-miterlimit="10" cx="476.015" cy="298.653" rx="165.314" ry="85.606"/>
		<g>
			<g>
				<path d="M649.934,297.759c-0.344,39.117-41.978,63.356-74.013,75.423c-50.418,18.992-108.066,21.336-160.588,10.685
					c-23.367-4.739-46.334-12.507-66.953-24.597c-15.85-9.294-30.574-21.774-39.038-38.355c-7.12-13.948-7.315-30.342-0.849-44.552
					c7.627-16.764,22.359-29.297,37.715-38.805c43.706-27.063,99.156-34.178,149.579-31.402c26.337,1.45,52.562,6.361,77.436,15.193
					c19.959,7.087,39.481,17.285,54.945,31.939C640.527,265,649.78,280.357,649.934,297.759c0.057,6.445,10.057,6.451,10,0
					c-0.343-38.994-36.179-65.389-68.464-79.805c-48.44-21.63-104.668-26.375-156.866-19.594
					c-43.387,5.637-92.26,20.238-122.216,54.174c-11.112,12.588-18.502,28.25-18.651,45.225
					c-0.149,16.995,7.78,32.613,18.651,45.225c13.266,15.391,31.442,26.377,49.812,34.581c22.93,10.239,47.55,16.365,72.404,19.594
					c52.444,6.813,108.136,1.767,156.866-19.594c32.331-14.173,68.123-40.985,68.464-79.806
					C659.99,291.308,649.99,291.313,649.934,297.759z"/>
			</g>
		</g>
		<g>
			<path d="M383.487,250.237h0.643c0.146,0.456,0.387,0.779,0.725,0.971c0.438,0.255,1.148,0.382,2.133,0.382
				c0.629,0,2.625-0.063,5.988-0.191c2.033-0.082,3.299-0.123,3.801-0.123c1.513,0,2.8,0.259,3.862,0.779
				c1.062,0.52,1.925,1.317,2.591,2.392c0.665,1.075,1.107,2.556,1.326,4.442c0.155,1.321,0.287,4.233,0.396,8.734
				c-1.777,1.121-3.143,2.091-4.1,2.912c-2.897-0.811-5.453-1.216-7.667-1.216c-1.503,0-2.897,0.181-4.182,0.543
				c-1.285,0.362-2.647,0.942-4.086,1.74l-0.403-0.526c1.871-0.966,3.515-1.956,4.93-2.967c1.415-1.012,2.348-1.917,2.8-2.714
				c0.452-0.798,0.678-1.812,0.678-3.042c0-0.447-0.009-1.108-0.027-1.983c-0.018-0.611-0.027-1.245-0.027-1.901
				c0-1.158,0.065-2.01,0.196-2.557s0.407-1.176,0.83-1.887h-0.354c-1.107,0.638-1.845,1.219-2.212,1.743
				c-0.368,0.524-0.552,1.191-0.552,2.002l0.109,4.852c0,1.294-0.388,2.453-1.163,3.478s-2.637,2.503-5.583,4.435l-0.403-0.54
				c1.491-1.037,2.475-1.888,2.95-2.552c0.476-0.664,0.714-1.36,0.714-2.088c0-0.627-0.201-1.162-0.603-1.604
				c-0.402-0.441-0.845-0.662-1.329-0.662c-0.247,0-0.475,0.068-0.685,0.205s-0.493,0.419-0.849,0.848l-0.444-0.444
				c0.311-0.781,0.724-1.354,1.241-1.717c0.517-0.364,1.136-0.545,1.858-0.545c0.21,0,0.441,0.023,0.692,0.068
				c0.251,0.046,0.523,0.114,0.816,0.205c-0.019-0.528-0.027-0.989-0.027-1.38c0-1.431,0.289-2.595,0.867-3.493
				c0.578-0.897,1.687-1.833,3.325-2.809c-1.505,0.155-2.806,0.232-3.9,0.232c-1.159,0-2.153-0.164-2.983-0.492
				c-0.621-0.255-1.077-0.663-1.369-1.223C383.715,251.979,383.542,251.212,383.487,250.237z M394.561,254.023
				c-0.392,0.665-0.656,1.243-0.793,1.735c-0.182,0.674-0.273,1.302-0.273,1.885l0.109,5.381c0,0.692-0.172,1.397-0.516,2.117
				c-0.262,0.538-0.756,1.193-1.48,1.967c1.326-0.212,2.339-0.313,3.038-0.304l0.776,0.014v-12.794H394.561z M396.12,259.272
				c0.557,0.392,1.044,0.661,1.459,0.807c0.416,0.146,0.866,0.219,1.35,0.219c0.484,0,0.936-0.075,1.356-0.226s0.914-0.417,1.48-0.8
				c-0.174-2.05-0.704-3.438-1.59-4.162s-2.239-1.087-4.057-1.087V259.272z M396.12,263.783c0.62-0.355,1.148-0.599,1.586-0.731
				c0.438-0.132,0.917-0.198,1.436-0.198c0.501,0,0.966,0.062,1.395,0.185s0.943,0.354,1.545,0.69l-0.224-3.704
				c-0.584,0.355-1.089,0.599-1.513,0.731c-0.425,0.132-0.888,0.198-1.39,0.198c-0.484,0-0.963-0.077-1.438-0.232
				c-0.475-0.155-0.94-0.387-1.397-0.697V263.783z M396.12,266.858c1.112,0.091,2.017,0.203,2.714,0.334
				c0.697,0.132,1.789,0.408,3.274,0.827c0.018-1.376,0.027-2.086,0.027-2.132c0-0.109-0.009-0.547-0.027-1.312
				c-0.583-0.401-1.096-0.679-1.538-0.834c-0.442-0.155-0.923-0.232-1.442-0.232c-0.529,0-1.019,0.078-1.47,0.232
				c-0.451,0.155-0.964,0.433-1.538,0.834V266.858z"/>
			<path d="M413.51,255.964l3.855,4.497l-6.125,4.292v2.487l3.171,1.258l2.146-1.462l0.301,0.41l-4.422,3.089
				c-0.904-0.483-1.648-0.829-2.232-1.039c-0.584-0.209-1.415-0.428-2.492-0.656v-0.342c0.31-0.182,0.517-0.408,0.622-0.677
				c0.104-0.269,0.157-0.85,0.157-1.743v-7.819c0.856-0.31,1.567-0.592,2.133-0.847C411.035,257.222,411.997,256.739,413.51,255.964
				z M411.432,257.536l-0.191,0.096v6.207l3.601-2.524L411.432,257.536z"/>
			<path d="M418.281,257.456l3.814-4.704h0.396l-0.137,3.772h2.748v1.531h-2.748v9.212l1.531,1.135l0.875-0.684l0.342,0.41
				l-3.014,2.406c-1.024-1.048-2.184-1.759-3.479-2.132v-0.273c0.364-0.246,0.606-0.501,0.725-0.767
				c0.155-0.337,0.232-0.826,0.232-1.464v-7.843h-1.285V257.456z"/>
			<path d="M434.133,255.964l2.071,2.481l-2.071,1.839l-1.728-2.189l-1.355,1.232v7.955l1.558,1.121l1.408-1.107l0.314,0.438
				l-3.506,2.802c-0.746-0.665-1.372-1.144-1.876-1.435s-1.058-0.52-1.658-0.684v-0.301c0.401-0.282,0.663-0.567,0.786-0.854
				c0.123-0.287,0.185-0.836,0.185-1.647v-5.577c0-0.702-0.078-1.169-0.234-1.401s-0.328-0.349-0.515-0.349
				c-0.206,0-0.486,0.183-0.843,0.547l-0.335-0.396l2.851-2.474c0.777,0.593,1.308,1.107,1.591,1.545
				c0.183,0.273,0.275,0.651,0.275,1.134L434.133,255.964z"/>
			<path d="M447.524,257.96v10.224c-1.369,0.556-2.36,1.012-2.971,1.367c-0.466,0.265-0.913,0.593-1.342,0.984
				c-1.324-0.802-2.418-1.358-3.286-1.667c-0.657-0.237-1.401-0.374-2.231-0.41l-0.137-0.273c0.346-0.292,0.565-0.556,0.656-0.793
				c0.127-0.31,0.191-0.833,0.191-1.572v-7.504c1.67-0.556,3.099-1.339,4.286-2.351C443.987,256.821,445.598,257.486,447.524,257.96
				z M441.167,266.858l3.568,1.462v-8.68c-1.121-0.525-1.914-0.87-2.378-1.036c-0.328-0.12-0.725-0.221-1.189-0.304V266.858z"/>
			<path d="M452.753,255.964l2.427,2.017l-1.08,1.045v7.436c0,0.784,0.065,1.294,0.197,1.531c0.132,0.237,0.268,0.355,0.408,0.355
				c0.099,0,0.189-0.022,0.271-0.068c0.115-0.063,0.354-0.246,0.716-0.547l0.335,0.424l-2.933,2.378
				c-0.732-0.52-1.204-1.009-1.414-1.469c-0.21-0.46-0.315-1.265-0.315-2.413v-7.627l-1.025-1.045L452.753,255.964z M453.786,251.29
				h1.736l-1.887,2.952h-0.547L453.786,251.29z"/>
			<path d="M457.641,257.456l3.814-4.704h0.396l-0.137,3.772h2.748v1.531h-2.748v9.212l1.531,1.135l0.875-0.684l0.342,0.41
				l-3.014,2.406c-1.024-1.048-2.184-1.759-3.479-2.132v-0.273c0.364-0.246,0.606-0.501,0.725-0.767
				c0.155-0.337,0.232-0.826,0.232-1.464v-7.843h-1.285V257.456z"/>
			<path d="M487.055,250.223l4.716,5.994l-4.397,2.964c1.253,0.754,2.255,1.643,3.008,2.668c0.754,1.025,1.34,2.348,1.76,3.97
				c0.191,0.784,0.388,1.357,0.589,1.722c0.137,0.237,0.393,0.518,0.768,0.842l1.364-1.157l0.472,0.492l-3.315,2.816
				c-0.666-0.419-1.145-0.866-1.437-1.339c-0.21-0.319-0.593-1.399-1.149-3.24c-0.301-0.975-0.684-1.809-1.149-2.501
				c-0.465-0.692-0.957-1.214-1.478-1.565c-0.52-0.351-1.223-0.67-2.107-0.958l-0.916,0.61v5.684
				c0.83,0.274,1.706,0.662,2.628,1.165l1.417-1.251l0.438,0.478l-3.554,2.918c-1.294-0.656-2.417-1.116-3.368-1.38
				c-0.952-0.264-1.911-0.396-2.876-0.396c-1.211,0-2.377,0.201-3.498,0.602c-0.592,0.218-1.253,0.61-1.981,1.175l-0.376-0.328
				c0.904-1.157,1.815-2.009,2.733-2.556c0.918-0.546,2.044-0.916,3.378-1.107v-0.615c0-0.884-0.115-1.606-0.343-2.167
				c-0.229-0.561-0.645-1.148-1.248-1.763s-1.238-1.119-1.905-1.511c-0.429-0.246-1.032-0.492-1.809-0.738v-0.561
				c0.74-0.273,1.649-0.774,2.728-1.503l2.577-1.723c0-1.175-0.083-2.016-0.247-2.521c-0.165-0.506-0.484-0.927-0.959-1.265
				c-0.475-0.337-1.005-0.506-1.59-0.506c-0.356,0-0.681,0.055-0.973,0.164s-0.654,0.314-1.083,0.615l-0.452-0.328
				c0.711-0.729,1.351-1.223,1.921-1.483c0.569-0.26,1.273-0.39,2.112-0.39c0.938,0,1.72,0.187,2.344,0.561
				c0.625,0.374,1.092,0.884,1.402,1.531c0.182,0.392,0.287,0.957,0.314,1.695L487.055,250.223z M478.723,256.729l-3.049,2.05
				c0.577,0.273,1.055,0.547,1.435,0.82c0.38,0.273,0.917,0.729,1.614,1.367V256.729z M483.152,253.668l-1.641,1.128v11.843
				c0.547,0.083,1.094,0.207,1.641,0.372V253.668z M485.223,252.244l-1.441,0.992v7.553l5.353-3.567L485.223,252.244z"/>
			<path d="M506.585,257.96v10.224c-1.37,0.556-2.36,1.012-2.972,1.367c-0.466,0.265-0.913,0.593-1.342,0.984
				c-1.323-0.802-2.419-1.358-3.285-1.667c-0.657-0.237-1.401-0.374-2.231-0.41l-0.137-0.273c0.347-0.292,0.565-0.556,0.656-0.793
				c0.128-0.31,0.191-0.833,0.191-1.572v-7.504c1.671-0.556,3.099-1.339,4.286-2.351
				C503.048,256.821,504.658,257.486,506.585,257.96z M500.228,266.858l3.568,1.462v-8.68c-1.121-0.525-1.914-0.87-2.379-1.036
				c-0.328-0.12-0.725-0.221-1.189-0.304V266.858z"/>
			<path d="M513.646,255.964l3.548,2.03l-1.456,2.125l-2.673-1.545v8.721l2.69,1.202l1.431-1.035l0.145,0.585l-3.384,2.488
				c-0.874-0.492-1.62-0.854-2.239-1.087c-0.619-0.232-1.379-0.435-2.279-0.608v-0.328c0.319-0.219,0.528-0.456,0.629-0.711
				c0.146-0.355,0.219-0.911,0.219-1.667v-7.778C511.412,257.837,512.535,257.04,513.646,255.964z"/>
			<path d="M524.48,250.948v0.355c-0.693,0.456-1.158,0.936-1.395,1.442c-0.237,0.506-0.355,1.324-0.355,2.454v4.716l4.081-3.951
				l2.774,3.056l-3.175,2.778c0.72,0.511,1.26,1.065,1.62,1.663c0.359,0.598,0.641,1.473,0.843,2.625s0.362,1.817,0.481,1.994
				c0.118,0.177,0.228,0.265,0.327,0.265c0.109,0,0.41-0.186,0.902-0.558l0.267,0.424l-3.199,2.324
				c-0.372-0.383-0.648-0.788-0.831-1.216c-0.182-0.428-0.319-1.053-0.41-1.873l-3.879,3.089c-0.555-0.532-1.09-0.949-1.604-1.252
				c-0.514-0.302-1.153-0.578-1.917-0.825v-0.273c0.419-0.282,0.688-0.575,0.807-0.88c0.118-0.305,0.178-1.071,0.178-2.299v-9.921
				c0-0.782-0.036-1.328-0.109-1.638c-0.101-0.455-0.248-0.807-0.444-1.057s-0.513-0.48-0.95-0.689l0.191-0.396
				c0.552,0.2,0.968,0.385,1.248,0.553c0.28,0.169,0.628,0.444,1.042,0.827c0.591-0.565,1.152-0.978,1.685-1.237
				C523.19,251.187,523.798,251.021,524.48,250.948z M525.217,258.225l-2.486,2.407v3.629l4.512-3.847L525.217,258.225z
				 M522.73,264.972v2.365l1.609,1.123l2-1.645c-0.235-1.529-0.9-2.617-1.995-3.265L522.73,264.972z"/>
			<path d="M546.375,251.809l0.335,0.383c-1.358,0.92-2.37,1.905-3.035,2.953c-0.857,1.349-1.285,2.816-1.285,4.401
				c0,1.923,0.633,3.7,1.9,5.331c0.547-0.447,0.875-0.823,0.984-1.128s0.164-1.141,0.164-2.508v-6.124l5.858-4.88
				c1.363,0.538,2.437,0.886,3.219,1.046c0.782,0.159,1.701,0.239,2.756,0.239h0.313l0.226,0.499l-2.256,2.153
				c-1.514-0.164-3.223-0.72-5.126-1.667l0.137,15.61l0.518,0.014c1.309,0,2.502-0.224,3.579-0.673s2.192-1.177,3.347-2.184
				l0.417,0.403c-0.848,1.168-1.679,2.076-2.495,2.724c-0.815,0.648-1.798,1.166-2.946,1.554c-1.147,0.388-2.287,0.582-3.417,0.582
				c-1.678,0-3.257-0.405-4.737-1.216c-1.481-0.811-2.642-1.973-3.479-3.486c-0.839-1.513-1.258-3.071-1.258-4.675
				c0-1.977,0.592-3.809,1.775-5.495C542.797,254.342,544.299,253.057,546.375,251.809z M549.8,252.409l-1.6,1.386v6.239
				c0,0.775-0.042,1.291-0.124,1.546c-0.091,0.337-0.302,0.698-0.631,1.081c-0.667,0.776-1.6,1.661-2.797,2.655
				c0.73,0.811,1.514,1.432,2.35,1.864c0.835,0.433,1.814,0.722,2.938,0.867L549.8,252.409z"/>
			<path d="M562.426,255.964l2.427,2.017l-1.08,1.045v7.436c0,0.784,0.065,1.294,0.197,1.531c0.132,0.237,0.268,0.355,0.407,0.355
				c0.099,0,0.189-0.022,0.272-0.068c0.114-0.063,0.354-0.246,0.716-0.547l0.335,0.424l-2.933,2.378
				c-0.732-0.52-1.203-1.009-1.414-1.469c-0.21-0.46-0.315-1.265-0.315-2.413v-7.627l-1.025-1.045L562.426,255.964z M563.458,251.29
				h1.736l-1.887,2.952h-0.547L563.458,251.29z"/>
			<path d="M567.313,257.456l3.814-4.704h0.396l-0.137,3.772h2.748v1.531h-2.748v9.212l1.531,1.135l0.875-0.684l0.342,0.41
				l-3.015,2.406c-1.024-1.048-2.184-1.759-3.479-2.132v-0.273c0.364-0.246,0.606-0.501,0.725-0.767
				c0.155-0.337,0.232-0.826,0.232-1.464v-7.843h-1.285V257.456z"/>
			<path d="M575.338,258.356l2.871-2.392c0.783,0.529,1.292,0.989,1.524,1.381s0.349,0.929,0.349,1.613v0.301l4.122-3.294
				c1.417,1.486,2.126,3.076,2.126,4.771c0,0.912-0.232,1.82-0.697,2.727s-1.194,1.768-2.188,2.583
				c-0.994,0.815-2.598,1.884-4.813,3.206c-0.967,0.583-1.545,0.952-1.736,1.107c-0.41,0.319-0.702,0.629-0.875,0.93
				c-0.128,0.219-0.191,0.464-0.191,0.738c0,0.465,0.23,0.896,0.69,1.292s1.068,0.595,1.825,0.595c0.547,0,0.998-0.096,1.354-0.287
				c0.173-0.091,0.342-0.285,0.506-0.581c0.164-0.296,0.305-0.49,0.424-0.581c0.118-0.091,0.26-0.137,0.424-0.137
				c0.182,0,0.328,0.05,0.438,0.15s0.164,0.232,0.164,0.396c0,0.292-0.215,0.579-0.643,0.861c-0.656,0.456-1.486,0.683-2.488,0.683
				c-1.049,0-1.854-0.248-2.42-0.745c-0.565-0.497-0.848-1.087-0.848-1.771c0-0.674,0.316-1.331,0.95-1.968
				c0.302-0.31,0.49-0.528,0.563-0.656c0.202-0.346,0.34-0.667,0.413-0.964c0.073-0.296,0.11-0.713,0.11-1.25v-6.534
				c0-0.911-0.104-1.531-0.312-1.859c-0.163-0.255-0.34-0.383-0.529-0.383c-0.153,0-0.353,0.119-0.597,0.355
				c-0.036,0.037-0.095,0.091-0.176,0.164L575.338,258.356z M580.082,259.888v7.763c1.28-0.929,2.19-1.897,2.73-2.905
				s0.811-1.967,0.811-2.878c0-1.23-0.501-2.434-1.502-3.609L580.082,259.888z"/>
		</g>
		<g>
		</g>
	</g>
	<g>
	</g>
	<line fill="#FFFFFF" stroke="#FFFFFF" stroke-width="4" stroke-miterlimit="10" x1="0" y1="296.389" x2="266" y2="296.389"/>
	<line stroke="#FFFFFF" stroke-width="4" stroke-miterlimit="10" x1="696" y1="296.389" x2="960" y2="296.389"/>
	<g>
	</g>
	<g>
	</g>
	<g>
		<path d="M379.557,290.117c0,1.58-0.548,3.25-1.645,5.011c-1.451,2.322-3.558,4.123-6.32,5.4c-2.547,1.174-5.285,1.761-8.211,1.761
			h-4.274l4.688-13.286h4.676l-3.976,11.214c1.701,0,3.387-0.522,5.058-1.567s2.89-2.335,3.659-3.872
			c0.691-1.355,1.036-2.486,1.036-3.393c0-1.485-0.414-2.551-1.243-3.199c-0.743-0.57-1.882-0.854-3.419-0.854h-12.524l1.995-3.263
			h12.538c2.167,0,3.972,0.458,5.414,1.373C378.706,286.521,379.557,288.079,379.557,290.117z"/>
		<path d="M396.29,300.217c-0.181,0.665-0.596,1.187-1.243,1.567c-0.579,0.336-1.239,0.505-1.981,0.505h-7.214
			c-4.196,0-6.294-1.265-6.294-3.794c0-1.623,0.716-2.896,2.15-3.82c1.234-0.794,2.703-1.191,4.403-1.191h1.878
			c1.096,0,2.059,0.168,2.888,0.505c1.105,0.449,1.684,1.131,1.735,2.046c0.043,0.924-0.401,1.692-1.334,2.305h-4.287l1.399-2.784
			h-2.733l-1.062,3.121c-0.061,0.181-0.091,0.345-0.091,0.492c0,0.699,0.562,1.049,1.684,1.049H396.29z"/>
		<path d="M407.727,300.217c-0.406,1.381-1.485,2.072-3.238,2.072h-6.605c-1.278,0-1.917-0.449-1.917-1.347
			c0-0.225,0.047-0.466,0.143-0.725l1.645-4.662h-2.125l0.816-2.072c1.511-0.389,2.634-0.885,3.368-1.489
			c0.829-0.682,1.714-1.917,2.655-3.704h2.525l-1.826,5.193h3.342c-0.536,1.381-1.624,2.072-3.264,2.072h-0.854l-1.619,4.662
			H407.727z"/>
		<path d="M422.893,300.217c0,0.604-0.333,1.113-0.997,1.528c-0.587,0.363-1.2,0.544-1.839,0.544h-4.96
			c-1.313,0-1.969-0.544-1.969-1.632c0-0.276,0.056-0.574,0.168-0.894l1.463-4.208H412l-1.438,3.717
			c-0.242,0.63-0.764,0.945-1.567,0.945h-1.373l1.697-4.662c-0.536-0.121-0.97-0.39-1.302-0.809c-0.333-0.419-0.499-0.9-0.499-1.444
			c0-0.993,0.461-1.761,1.386-2.305c0.769-0.449,1.684-0.673,2.746-0.673h2.098l-1.088,3.16h7.163l-2.357,6.734H422.893z"/>
		<path d="M444.938,293.483c-0.345,1.381-1.381,2.072-3.108,2.072h-8.108c0.285,0.19,0.518,0.538,0.7,1.042
			c0.181,0.505,0.254,0.943,0.22,1.314c-0.121,1.442-0.756,2.573-1.904,3.393c-1.097,0.786-2.521,1.183-4.274,1.191
			c-2.038,0.018-3.605-0.384-4.702-1.204c-0.976-0.725-1.463-1.679-1.463-2.862c0-0.233,0.021-0.466,0.064-0.699
			c0.225-1.304,0.872-2.327,1.943-3.069c1.14-0.785,2.66-1.178,4.559-1.178H444.938z M430.82,295.555h-2.966l-1.166,3.315
			c-0.061,0.172-0.091,0.336-0.091,0.492c0,0.743,0.691,1.114,2.072,1.114c0.164,0,0.307-0.004,0.428-0.013L430.82,295.555z"/>
		<path d="M448.175,300.217c-0.225,0.76-0.691,1.321-1.398,1.683c-0.51,0.259-1.062,0.389-1.658,0.389h-5.116
			c-1.235,0-1.852-0.518-1.852-1.554c0-0.293,0.061-0.609,0.181-0.945l2.253-6.307h4.702l-2.396,6.734H448.175z M447.243,288.174
			c0,0.863-0.335,1.597-1.004,2.201c-0.669,0.604-1.475,0.907-2.416,0.907c-0.958,0-1.772-0.302-2.441-0.907
			c-0.669-0.604-1.004-1.338-1.004-2.201c0-0.855,0.334-1.584,1.004-2.188c0.669-0.604,1.483-0.907,2.441-0.907
			c0.941,0,1.746,0.302,2.416,0.907C446.908,286.59,447.243,287.319,447.243,288.174z"/>
		<path d="M459.689,300.217c-0.406,1.381-1.485,2.072-3.238,2.072h-6.605c-1.278,0-1.917-0.449-1.917-1.347
			c0-0.225,0.047-0.466,0.143-0.725l1.645-4.662h-2.125l0.816-2.072c1.511-0.389,2.634-0.885,3.368-1.489
			c0.829-0.682,1.714-1.917,2.655-3.704h2.525l-1.826,5.193h3.342c-0.536,1.381-1.624,2.072-3.264,2.072h-0.854l-1.619,4.662
			H459.689z"/>
		<path d="M489.867,284.069l-4.48,12.781c-1.098,3.134-2.781,5.551-5.052,7.252c-1.926,1.441-3.929,2.163-6.01,2.163
			c-1.287,0-2.34-0.29-3.16-0.868c-0.847-0.596-1.27-1.386-1.27-2.37c0-0.855,0.337-1.584,1.01-2.188
			c0.673-0.604,1.485-0.907,2.435-0.907c0.958,0,1.774,0.302,2.448,0.907c0.674,0.604,1.01,1.333,1.01,2.188
			c0,0.146-0.017,0.324-0.052,0.531c0.829-0.354,1.554-1.092,2.176-2.214c0.345-0.622,0.76-1.614,1.244-2.979l3.898-11.033h-7.46
			c-1.114,0-2.115,0.324-3.005,0.971c-0.967,0.708-1.45,1.597-1.45,2.667c0,0.743,0.25,1.166,0.751,1.269
			c0.164-0.803,0.587-1.446,1.27-1.93c0.639-0.466,1.373-0.699,2.202-0.699c0.898,0,1.675,0.276,2.331,0.829
			c0.708,0.587,1.062,1.347,1.062,2.279c0,1.036-0.423,1.843-1.269,2.422c-0.725,0.5-1.627,0.751-2.707,0.751
			c-1.667,0-3.052-0.389-4.157-1.166c-1.227-0.872-1.839-2.072-1.839-3.6c0-2.288,0.907-4.075,2.72-5.361
			c1.598-1.131,3.583-1.696,5.958-1.696H489.867z"/>
		<path d="M505.591,300.217c-0.414,1.381-1.472,2.072-3.173,2.072h-4.909c-1.398,0-2.098-0.449-2.098-1.347
			c-0.941,1.07-2.099,1.605-3.471,1.605c-1.011,0-1.831-0.311-2.461-0.932c-0.631-0.622-0.946-1.433-0.946-2.435
			c0-1.804,0.691-3.229,2.072-4.273c1.252-0.949,2.803-1.424,4.65-1.424h7.396l-2.436,6.734H505.591z M497.237,295.555h-2.862
			l-0.906,3.018c-0.053,0.19-0.078,0.362-0.078,0.518c0,0.751,0.733,1.127,2.202,1.127L497.237,295.555z"/>
		<path d="M519.308,300.217c-0.406,1.381-1.408,2.072-3.005,2.072h-8.458c-1.623,0-2.435-0.423-2.435-1.269
			c0-0.552,0.22-1.058,0.66-1.515l3.847-3.95h-4.403l0.712-2.072h10.958l-6.152,6.734H519.308z"/>
		<path d="M533.023,300.217c-0.406,1.381-1.408,2.072-3.005,2.072h-8.458c-1.623,0-2.435-0.423-2.435-1.269
			c0-0.552,0.22-1.058,0.66-1.515l3.847-3.95h-4.403l0.712-2.072h10.958l-6.152,6.734H533.023z"/>
		<path d="M563.757,287.229c0,0.906-0.358,1.67-1.074,2.292c-0.683,0.587-1.481,0.88-2.396,0.88c-0.924,0-1.731-0.293-2.422-0.88
			c-0.717-0.622-1.075-1.386-1.075-2.292c0-0.302,0.034-0.562,0.104-0.777c-1.848,0.018-3.527,0.976-5.038,2.875
			c-1.416,1.796-2.124,3.643-2.124,5.542c0,3.565,2.327,5.348,6.981,5.348h6.515c-0.268,1.381-1.317,2.072-3.147,2.072H555.3
			c-2.979,0-5.396-0.432-7.253-1.295c-2.548-1.191-3.808-3.129-3.782-5.814c0.018-1.502,0.479-3.004,1.386-4.506
			c1.235-2.055,2.987-3.678,5.259-4.869c2.202-1.157,4.542-1.735,7.02-1.735h2.591c0.837,0,1.586,0.319,2.247,0.958
			C563.427,285.667,563.757,286.4,563.757,287.229z"/>
		<path d="M573.018,300.217c-0.225,0.76-0.69,1.321-1.398,1.683c-0.51,0.259-1.063,0.389-1.658,0.389h-5.116
			c-1.234,0-1.852-0.518-1.852-1.554c0-0.293,0.061-0.609,0.182-0.945l2.253-6.307h4.702l-2.396,6.734H573.018z M572.085,288.174
			c0,0.863-0.334,1.597-1.004,2.201c-0.669,0.604-1.474,0.907-2.415,0.907c-0.959,0-1.772-0.302-2.441-0.907
			c-0.669-0.604-1.004-1.338-1.004-2.201c0-0.855,0.335-1.584,1.004-2.188c0.669-0.604,1.482-0.907,2.441-0.907
			c0.941,0,1.746,0.302,2.415,0.907C571.751,286.59,572.085,287.319,572.085,288.174z"/>
		<path d="M584.533,300.217c-0.406,1.381-1.485,2.072-3.238,2.072h-6.605c-1.278,0-1.917-0.449-1.917-1.347
			c0-0.225,0.048-0.466,0.143-0.725l1.645-4.662h-2.124l0.816-2.072c1.511-0.389,2.633-0.885,3.367-1.489
			c0.829-0.682,1.714-1.917,2.655-3.704h2.525l-1.826,5.193h3.342c-0.535,1.381-1.624,2.072-3.264,2.072h-0.855l-1.619,4.662
			H584.533z"/>
		<path d="M601.771,300.217c-0.51,1.381-1.464,2.072-2.862,2.072h-3.161c-0.751,2.037-1.541,3.548-2.37,4.532
			c-1.157,1.364-2.595,2.046-4.313,2.046c-1.079,0-1.913-0.315-2.5-0.945c-0.51-0.552-0.764-1.265-0.764-2.136
			c0-0.691,0.148-1.36,0.446-2.007s0.688-1.144,1.173-1.489h-0.984c-0.57,0-1.043-0.175-1.419-0.524
			c-0.375-0.35-0.563-0.788-0.563-1.314c0-0.242,0.044-0.488,0.13-0.738l2.254-6.229h4.701l-2.422,6.734h2.629l2.384-6.734h4.675
			l-2.383,6.734H601.771z M590.931,302.639c-0.57,0-1.099,0.322-1.587,0.965s-0.731,1.284-0.731,1.923
			c0,0.57,0.25,1.027,0.751,1.373L590.931,302.639z"/>
	</g>
	<g>
		<path d="M384.012,321.626c3.042,0,5.605,0.795,7.692,2.387c2.281,1.733,3.422,4.076,3.422,7.028c0,2.333-0.204,4.27-0.61,5.808
			c-0.496,1.892-1.344,3.342-2.547,4.35c-1.344,1.132-3.174,1.697-5.491,1.697c-0.495,0-0.951-0.018-1.366-0.053
			c-0.416-0.036-0.827-0.106-1.233-0.212L384.012,321.626z M387.089,340.058c1.821-0.477,3.13-1.37,3.926-2.678
			c0.707-1.149,1.061-2.723,1.061-4.721c0-1.626-0.257-3.094-0.77-4.402c-0.689-1.768-1.697-2.652-3.024-2.652
			c-0.708,0-1.406,0.098-2.095,0.292L387.089,340.058z"/>
		<path d="M396.797,331.147c0-2.051,0.424-3.567,1.273-4.548s2.263-1.472,4.244-1.472c1.521,0,2.696,0.654,3.528,1.962
			c0.689,1.096,1.035,2.449,1.035,4.058h-6.525c0.018,0.708,0.035,1.415,0.053,2.122c0.088,1.786,0.601,2.679,1.538,2.679
			c0.513,0,0.986-0.142,1.419-0.424c0.433-0.283,0.65-0.663,0.65-1.141c0-0.3-0.044-0.645-0.133-1.034l3.183-0.08
			c-0.442,1.485-0.981,2.511-1.618,3.076c-0.743,0.672-1.856,1.008-3.342,1.008c-1.627,0-2.936-0.636-3.926-1.909
			C397.256,334.277,396.797,332.845,396.797,331.147z M398.998,329.45l4.005-0.106v-0.345c0-0.76-0.168-1.334-0.504-1.724
			c-0.336-0.389-0.875-0.583-1.618-0.583c-0.689,0-1.18,0.204-1.472,0.61c-0.292,0.407-0.438,0.973-0.438,1.697L398.998,329.45z"/>
		<path d="M408.945,324.093h2.148l-0.106-3.235h2.706l-0.212,3.235h3.713v3.023l-3.926-0.186l0.239,8.195
			c0.035,0.672,0.08,1.335,0.133,1.989c0.088,0.566,0.229,0.849,0.424,0.849c0.372,0,0.672-0.619,0.902-1.856
			c0.177-1.379,0.283-2.192,0.318-2.44l3.13,0.981c-0.495,1.91-1.176,3.324-2.042,4.244c-0.725,0.76-1.556,1.14-2.493,1.14
			c-0.726,0-1.344-0.15-1.857-0.451c-0.619-0.354-0.928-0.875-0.928-1.565v-11.245l-2.281,0.08L408.945,324.093z"/>
		<path d="M419.768,332.022c0-0.795-0.089-2.457-0.265-4.986c-0.089-1.273-0.133-2.271-0.133-2.997h2.652l0.08,1.193l-0.053-0.239
			c0-0.3,0.167-0.535,0.504-0.703c0.335-0.168,0.857-0.252,1.565-0.252c1.627,0,2.661,0.575,3.104,1.724
			c0.229,0.583,0.345,1.866,0.345,3.846l-2.308,0.292c-0.124-1.326-0.212-2.13-0.265-2.413c-0.248-1.344-0.575-2.016-0.981-2.016
			c-0.566,0-0.973,0.221-1.22,0.663c-0.177,0.301-0.296,1.366-0.358,3.196c-0.062,1.83-0.093,3.408-0.093,4.734
			c0,1.061,0.04,2.215,0.12,3.461c0.08,1.247,0.252,2.966,0.517,5.159l-3.607,0.132c0-1.061,0.088-3.306,0.265-6.736
			C419.723,334.366,419.768,333.013,419.768,332.022z"/>
		<path d="M436.531,336.743c-2.051,0-3.767-0.636-5.146-1.909c-1.379-1.273-2.069-2.926-2.069-4.959c0-1.68,0.725-3.014,2.175-4.005
			c1.273-0.866,2.776-1.299,4.509-1.299c1.91,0,3.43,0.619,4.562,1.856c1.132,1.238,1.698,2.829,1.698,4.773
			c0,1.698-0.535,3.046-1.604,4.044C439.586,336.244,438.211,336.743,436.531,336.743z M434.542,325.896
			c-0.761,0-1.349,0.301-1.764,0.901c-0.416,0.602-0.623,1.3-0.623,2.095c0,0.689,0.189,1.561,0.57,2.612
			c0.38,1.052,0.809,1.746,1.286,2.082l1.247,0.689c0.106,0.053,0.345,0.186,0.716,0.398c0.318,0.159,0.575,0.238,0.77,0.238
			c0.583,0,1.185-0.256,1.804-0.769c0.619-0.512,0.928-1.052,0.928-1.618l-0.026-0.292c-0.142-1.591-0.593-2.979-1.353-4.164
			C437.177,326.622,435.992,325.896,434.542,325.896z"/>
		<path d="M445.683,328.23l0.451,8.938h-2.785c0-0.743-0.026-1.865-0.08-3.368c-0.053-1.502-0.08-2.634-0.08-3.395
			c0-0.283,0.022-0.623,0.066-1.021c0.044-0.398,0.093-0.782,0.146-1.154H445.683z M445.921,326.188
			c0,0.478-0.098,0.849-0.292,1.114c-0.195,0.265-0.513,0.398-0.955,0.398c-0.354,0-0.667-0.11-0.941-0.332
			c-0.274-0.221-0.411-0.508-0.411-0.862c0-0.389,0.159-0.765,0.478-1.127s0.672-0.544,1.061-0.544c0.335,0,0.597,0.137,0.782,0.411
			C445.829,325.521,445.921,325.834,445.921,326.188z"/>
		<path d="M447.699,324.093h2.148l-0.106-3.235h2.706l-0.212,3.235h3.713v3.023l-3.926-0.186l0.239,8.195
			c0.035,0.672,0.08,1.335,0.133,1.989c0.088,0.566,0.229,0.849,0.424,0.849c0.372,0,0.672-0.619,0.902-1.856
			c0.177-1.379,0.283-2.192,0.318-2.44l3.13,0.981c-0.495,1.91-1.176,3.324-2.042,4.244c-0.725,0.76-1.556,1.14-2.493,1.14
			c-0.726,0-1.344-0.15-1.857-0.451c-0.619-0.354-0.928-0.875-0.928-1.565v-11.245l-2.281,0.08L447.699,324.093z"/>
		<path d="M469.051,333.243l1.141,8.699l-4.165,0.345c0.229-1.485,0.398-2.798,0.504-3.938c0.106-1.14,0.159-2.312,0.159-3.514
			c0-1.131-0.106-3.598-0.318-7.399c-0.106-1.892-0.159-3.377-0.159-4.456c1.415-0.389,2.803-0.583,4.165-0.583
			c1.768,0,3.077,0.487,3.926,1.458c0.796,0.902,1.194,2.254,1.194,4.058c0,1.379-0.416,2.688-1.247,3.925
			c-0.938,1.379-2.086,2.069-3.448,2.069c-0.354,0-0.734-0.097-1.141-0.292C469.502,333.543,469.299,333.419,469.051,333.243z
			 M469.184,325.154l-0.027,6.338c0.442,0.195,0.893,0.292,1.353,0.292c0.601,0,1.052-0.424,1.353-1.273
			c0.212-0.619,0.318-1.317,0.318-2.095c0-0.955-0.256-1.697-0.769-2.228C470.899,325.658,470.156,325.313,469.184,325.154z"/>
		<path d="M477.327,331.519c0-0.636-0.026-1.353-0.08-2.148c-0.053-0.796-0.115-1.494-0.186-2.095l4.509,1.087
			c-0.301,1.609-0.521,3.05-0.663,4.323c-0.142,1.273-0.212,2.59-0.212,3.952v0.478c0,0.866,0.08,1.511,0.239,1.936
			c0.248,0.672,0.707,1.008,1.379,1.008c1.433,0,2.431-0.999,2.997-2.997c0.336-1.202,0.504-2.767,0.504-4.694
			c0-1.449-0.044-2.837-0.133-4.164c-0.088-1.326-0.221-2.679-0.397-4.058l4.323-0.822c-0.336,1.962-0.588,3.789-0.756,5.477
			c-0.168,1.688-0.252,3.426-0.252,5.211c0,3.112-0.521,5.295-1.564,6.55c-0.885,1.061-2.176,1.591-3.873,1.591
			c-1.592,0-2.98-0.38-4.165-1.14c-1.362-0.866-2.042-2.051-2.042-3.554c0-0.654,0.062-1.645,0.186-2.971
			C477.265,333.163,477.327,332.173,477.327,331.519z"/>
		<path d="M493.852,343.135l-2.626,0.265c0-1.043,0.035-2.334,0.106-3.872c0.159-3.448,0.238-5.604,0.238-6.471
			c0-0.813-0.035-1.812-0.105-2.997c-0.159-2.688-0.239-4.358-0.239-5.012l2.176-0.212c0.937,0.689,1.856,1.547,2.758,2.573
			c0.637,0.707,1.928,2.387,3.873,5.039c0.266-1.803,0.397-3.615,0.397-5.437c0-1.114-0.115-2.307-0.345-3.581
			c0.389,0,0.729,0.031,1.021,0.093s0.677,0.172,1.154,0.331c0,0.92-0.019,1.919-0.054,2.997c-0.089,2.688-0.133,4.367-0.133,5.039
			c0,1.432,0.098,3.041,0.292,4.827c0.124,1.061,0.336,2.67,0.637,4.827l-3.236-0.212c-1.008-1.892-2.007-3.792-2.997-5.702
			c-1.238-2.263-2.405-4.066-3.501-5.41c0,1.379,0.044,2.802,0.133,4.27c0.088,1.468,0.186,3.006,0.291,4.615
			C493.799,340.712,493.852,342.057,493.852,343.135z"/>
		<path d="M508.679,342.472h-4.482c0.194-1.856,0.358-3.646,0.491-5.371c0.132-1.724,0.198-3.363,0.198-4.919
			c0-1.697-0.066-3.284-0.198-4.76c-0.133-1.476-0.35-3.39-0.65-5.742h3.793l-0.026,8.54c1.202-0.265,2.104-0.791,2.706-1.578
			c0.601-0.787,0.901-1.799,0.901-3.037c0-1.114-0.159-2.175-0.478-3.183l5.252,0.849c-0.689,1.927-1.441,3.519-2.254,4.773
			c-1.062,1.645-2.3,2.864-3.714,3.66c1.22,1.397,2.148,2.538,2.785,3.421c0.849,1.185,1.525,2.36,2.029,3.527
			s0.889,2.546,1.153,4.137l-4.854-0.663c0-2.316-0.124-4.013-0.372-5.092c-0.495-2.122-1.494-3.183-2.997-3.183L508.679,342.472z"
			/>
		<path d="M524.78,332.924c0-3.041,0.486-5.49,1.459-7.346c1.272-2.422,3.289-3.633,6.048-3.633c1.75,0,3.156,0.606,4.217,1.816
			c1.062,1.211,1.592,2.692,1.592,4.442l-2.971,0.265l0.026-0.716c0-1.804-0.292-3.059-0.875-3.766
			c-0.495-0.601-1.229-0.902-2.202-0.902c-1.715,0-2.873,1.167-3.475,3.501c-0.336,1.309-0.504,3.191-0.504,5.649
			c0,2.741,0.27,4.849,0.81,6.325c0.539,1.476,1.304,2.214,2.294,2.214c1.273,0,2.272-0.539,2.997-1.618
			c0.637-0.955,0.955-2.078,0.955-3.368c0-0.248-0.009-0.433-0.026-0.557c0.584,0,1.176-0.044,1.777-0.132
			c0.601-0.088,1.017-0.15,1.246-0.186c0,2.281-0.565,4.076-1.697,5.384c-1.203,1.379-2.927,2.069-5.173,2.069
			c-2.016,0-3.651-1.114-4.906-3.342C525.311,337.15,524.78,335.117,524.78,332.924z"/>
		<path d="M542.685,328.23l0.451,8.938h-2.785c0-0.743-0.026-1.865-0.079-3.368c-0.054-1.502-0.08-2.634-0.08-3.395
			c0-0.283,0.022-0.623,0.066-1.021s0.093-0.782,0.146-1.154H542.685z M542.924,326.188c0,0.478-0.098,0.849-0.292,1.114
			s-0.513,0.398-0.955,0.398c-0.354,0-0.668-0.11-0.941-0.332c-0.274-0.221-0.411-0.508-0.411-0.862
			c0-0.389,0.159-0.765,0.478-1.127s0.672-0.544,1.061-0.544c0.336,0,0.597,0.137,0.783,0.411
			C542.831,325.521,542.924,325.834,542.924,326.188z"/>
		<path d="M544.7,324.093h2.148l-0.105-3.235h2.705l-0.212,3.235h3.714v3.023l-3.926-0.186l0.238,8.195
			c0.035,0.672,0.08,1.335,0.133,1.989c0.088,0.566,0.229,0.849,0.425,0.849c0.371,0,0.671-0.619,0.901-1.856
			c0.177-1.379,0.282-2.192,0.318-2.44l3.13,0.981c-0.495,1.91-1.176,3.324-2.042,4.244c-0.726,0.76-1.557,1.14-2.494,1.14
			c-0.725,0-1.344-0.15-1.856-0.451c-0.619-0.354-0.929-0.875-0.929-1.565v-11.245l-2.281,0.08L544.7,324.093z"/>
		<path d="M561.465,344.408c0.672,0,1.131-0.451,1.379-1.353c0.159-0.566,0.239-1.291,0.239-2.175c0-1.202-0.124-2.449-0.372-3.739
			c-0.354,0.265-0.654,0.469-0.901,0.61c-0.371,0.212-0.717,0.318-1.034,0.318c-0.885,0-1.751-0.822-2.6-2.466
			c-0.673-1.309-1.282-2.997-1.831-5.065c-0.389-1.485-0.681-2.855-0.875-4.111l4.032-0.265v1.353c0,2.493,0.189,4.464,0.57,5.914
			c0.38,1.45,0.933,2.175,1.657,2.175c0.372,0,0.698-0.115,0.981-0.345l-0.769-6.896l3.156,0.292c0,1.114-0.049,2.962-0.146,5.543
			c-0.098,2.582-0.146,4.261-0.146,5.039c0,1.98-0.115,3.527-0.345,4.641c-0.442,2.174-1.291,3.262-2.547,3.262
			c-0.954,0-2.131-0.46-3.527-1.379c-1.025-0.672-2.043-1.494-3.051-2.466l3.184-0.716c0.494,0.531,0.928,0.937,1.3,1.22
			C560.386,344.204,560.934,344.408,561.465,344.408z"/>
	</g>
	<g>
		<rect x="192.765" y="432.881" fill="none" width="534.191" height="97.109"/>
	</g>
	<g>
		<path fill="#FFFFFF" d="M172.14,451.304h-0.894c-0.078-0.311-0.219-0.68-0.422-1.107c-0.203-0.427-0.43-0.831-0.681-1.211
			c-0.26-0.396-0.543-0.744-0.851-1.042s-0.604-0.469-0.889-0.512c-0.268-0.034-0.605-0.061-1.012-0.078
			c-0.407-0.017-0.784-0.025-1.129-0.025h-0.753v14.697c0,0.285,0.06,0.547,0.181,0.784s0.333,0.421,0.635,0.55
			c0.155,0.061,0.481,0.143,0.978,0.246c0.496,0.104,0.882,0.16,1.159,0.169v0.919h-8.678v-0.919
			c0.241-0.018,0.61-0.053,1.107-0.104s0.84-0.116,1.03-0.193c0.285-0.112,0.494-0.274,0.628-0.486
			c0.134-0.211,0.201-0.494,0.201-0.848v-14.814h-0.751c-0.268,0-0.6,0.007-0.997,0.02c-0.397,0.013-0.777,0.041-1.14,0.084
			c-0.285,0.034-0.581,0.205-0.887,0.512c-0.307,0.307-0.589,0.653-0.849,1.042c-0.259,0.389-0.488,0.801-0.687,1.237
			c-0.199,0.436-0.336,0.796-0.414,1.081h-0.907v-4.985h16.021V451.304z"/>
		<path fill="#FFFFFF" d="M187.164,464.693h-6.282v-0.854c0.198-0.018,0.418-0.034,0.661-0.052c0.241-0.018,0.44-0.052,0.596-0.104
			c0.242-0.078,0.421-0.214,0.538-0.408c0.116-0.194,0.175-0.446,0.175-0.758v-6.565c0-0.906-0.214-1.605-0.643-2.098
			c-0.428-0.492-0.95-0.738-1.564-0.738c-0.45,0-0.868,0.071-1.253,0.214s-0.729,0.317-1.032,0.524
			c-0.294,0.216-0.519,0.432-0.675,0.647s-0.277,0.397-0.364,0.544v7.343c0,0.293,0.059,0.535,0.175,0.725
			c0.117,0.19,0.296,0.337,0.538,0.44c0.19,0.087,0.386,0.151,0.589,0.194c0.203,0.043,0.425,0.073,0.667,0.091v0.854h-6.256v-0.854
			c0.197-0.018,0.403-0.037,0.618-0.059s0.395-0.054,0.54-0.098c0.24-0.077,0.42-0.213,0.541-0.407
			c0.12-0.194,0.18-0.447,0.18-0.759v-14.876c0-0.294-0.067-0.588-0.201-0.882s-0.309-0.514-0.524-0.661
			c-0.155-0.111-0.43-0.191-0.822-0.239c-0.393-0.048-0.71-0.08-0.952-0.098v-0.828l4.728-0.285l0.181,0.194v8.909h0.052
			c0.286-0.285,0.545-0.537,0.778-0.758c0.234-0.22,0.541-0.451,0.921-0.692c0.329-0.207,0.716-0.38,1.161-0.519
			c0.445-0.138,0.945-0.207,1.498-0.207c1.142,0,2.02,0.361,2.634,1.082c0.614,0.721,0.921,1.759,0.921,3.114v6.643
			c0,0.303,0.054,0.546,0.163,0.731c0.109,0.187,0.289,0.331,0.542,0.435c0.2,0.077,0.38,0.136,0.541,0.175
			c0.161,0.038,0.372,0.066,0.633,0.084V464.693z"/>
		<path fill="#FFFFFF" d="M200.051,461.689c-0.536,1.019-1.252,1.83-2.15,2.435c-0.898,0.604-1.93,0.906-3.096,0.906
			c-1.027,0-1.928-0.182-2.7-0.544c-0.773-0.362-1.41-0.854-1.911-1.477c-0.501-0.621-0.874-1.347-1.12-2.176
			c-0.246-0.828-0.369-1.704-0.369-2.628c0-0.829,0.131-1.643,0.395-2.441c0.263-0.799,0.649-1.517,1.159-2.156
			c0.492-0.612,1.103-1.107,1.833-1.482c0.729-0.376,1.548-0.563,2.455-0.563c0.933,0,1.731,0.146,2.396,0.44
			c0.665,0.294,1.205,0.695,1.619,1.204c0.397,0.483,0.693,1.054,0.887,1.709c0.194,0.656,0.291,1.369,0.291,2.137v0.855h-8.458
			c0,0.839,0.08,1.601,0.24,2.284s0.412,1.284,0.758,1.804c0.336,0.502,0.777,0.897,1.321,1.188s1.192,0.435,1.943,0.435
			c0.769,0,1.431-0.18,1.988-0.54c0.557-0.36,1.094-1.009,1.612-1.946L200.051,461.689z M197.188,456.82
			c0-0.482-0.041-0.999-0.123-1.55c-0.082-0.55-0.214-1.011-0.395-1.381c-0.199-0.396-0.471-0.719-0.816-0.969
			c-0.346-0.249-0.79-0.374-1.334-0.374c-0.907,0-1.66,0.376-2.26,1.13c-0.6,0.753-0.926,1.801-0.978,3.144H197.188z"/>
		<path fill="#FFFFFF" d="M223.714,459.28l-0.35,5.413h-15.257v-0.919c0.259-0.018,0.604-0.055,1.036-0.11
			c0.432-0.057,0.712-0.114,0.842-0.175c0.276-0.13,0.468-0.298,0.577-0.505c0.108-0.208,0.162-0.471,0.162-0.79v-13.209
			c0-0.284-0.047-0.537-0.142-0.757c-0.095-0.221-0.294-0.399-0.596-0.538c-0.233-0.112-0.546-0.211-0.939-0.298
			c-0.393-0.086-0.706-0.138-0.939-0.155v-0.919h14.221v4.429h-0.971c-0.173-0.656-0.546-1.354-1.121-2.092s-1.12-1.142-1.638-1.211
			c-0.268-0.034-0.587-0.06-0.958-0.077c-0.372-0.018-0.794-0.026-1.27-0.026h-2.888v7.304h2.072c0.665,0,1.15-0.063,1.457-0.188
			s0.577-0.335,0.81-0.628c0.19-0.251,0.352-0.585,0.486-1.004s0.222-0.813,0.266-1.185h0.971v7.199h-0.971
			c-0.035-0.414-0.127-0.853-0.279-1.314c-0.151-0.461-0.309-0.796-0.473-1.003c-0.268-0.337-0.572-0.557-0.913-0.661
			c-0.341-0.104-0.792-0.155-1.354-0.155h-2.072v5.508c0,0.552,0.039,0.987,0.117,1.306c0.078,0.319,0.229,0.561,0.453,0.724
			c0.225,0.164,0.531,0.27,0.92,0.317c0.388,0.047,0.941,0.071,1.658,0.071c0.285,0,0.661,0,1.127,0s0.859-0.018,1.178-0.052
			c0.328-0.035,0.667-0.098,1.017-0.188c0.35-0.09,0.598-0.213,0.745-0.369c0.397-0.414,0.813-1.042,1.25-1.884
			c0.436-0.842,0.714-1.461,0.835-1.858H223.714z"/>
		<path fill="#FFFFFF" d="M237.871,452.715c-0.389,0.069-0.758,0.21-1.107,0.421c-0.35,0.212-0.65,0.585-0.9,1.12
			c-0.509,1.157-1.036,2.363-1.58,3.619c-0.544,1.257-1.109,2.575-1.697,3.956c-0.173,0.397-0.356,0.868-0.55,1.412
			s-0.374,1.066-0.538,1.566h-1.01c-0.82-2.028-1.576-3.878-2.267-5.549c-0.691-1.67-1.407-3.382-2.15-5.134
			c-0.173-0.397-0.451-0.706-0.835-0.927c-0.384-0.22-0.771-0.36-1.159-0.42v-0.855h5.91v0.907
			c-0.259,0.008-0.583,0.063-0.972,0.161c-0.388,0.1-0.583,0.235-0.583,0.407c0,0.026,0.021,0.093,0.064,0.2
			c0.043,0.108,0.086,0.231,0.13,0.369c0.353,0.879,0.853,2.108,1.498,3.687s1.171,2.851,1.576,3.816
			c0.311-0.742,0.702-1.664,1.172-2.769c0.471-1.104,0.978-2.337,1.522-3.699c0.086-0.233,0.168-0.451,0.246-0.653
			c0.078-0.203,0.117-0.407,0.117-0.614c0-0.146-0.071-0.278-0.213-0.395c-0.143-0.117-0.313-0.218-0.512-0.305
			c-0.199-0.086-0.393-0.15-0.583-0.193s-0.345-0.073-0.466-0.091v-0.829h4.887V452.715z"/>
		<path fill="#FFFFFF" d="M250.887,458.18c0,0.898-0.143,1.78-0.428,2.648c-0.285,0.867-0.691,1.604-1.219,2.208
			c-0.597,0.69-1.288,1.204-2.074,1.541c-0.787,0.336-1.668,0.505-2.645,0.505c-0.813,0-1.586-0.153-2.321-0.46
			c-0.735-0.307-1.388-0.753-1.958-1.34c-0.562-0.579-1.009-1.284-1.342-2.117c-0.333-0.833-0.499-1.768-0.499-2.804
			c0-1.994,0.581-3.626,1.744-4.896c1.163-1.269,2.686-1.903,4.57-1.903c1.789,0,3.265,0.603,4.428,1.807
			S250.887,456.177,250.887,458.18z M248.206,458.206c0-0.647-0.065-1.332-0.194-2.053c-0.13-0.721-0.325-1.332-0.584-1.832
			c-0.277-0.536-0.64-0.965-1.09-1.289c-0.45-0.323-0.999-0.485-1.648-0.485c-0.667,0-1.235,0.164-1.706,0.492
			c-0.472,0.328-0.854,0.776-1.148,1.347c-0.277,0.526-0.472,1.126-0.584,1.8c-0.113,0.674-0.168,1.325-0.168,1.955
			c0,0.829,0.067,1.596,0.201,2.299c0.134,0.704,0.348,1.332,0.642,1.884c0.294,0.553,0.664,0.986,1.109,1.302
			c0.445,0.315,0.997,0.473,1.654,0.473c1.081,0,1.938-0.522,2.569-1.566C247.89,461.486,248.206,460.045,248.206,458.206z"/>
		<path fill="#FFFFFF" d="M258.71,464.693h-6.23v-0.854c0.198-0.018,0.41-0.037,0.635-0.059c0.224-0.021,0.41-0.054,0.557-0.098
			c0.242-0.077,0.423-0.213,0.544-0.407s0.182-0.447,0.182-0.759v-14.799c0-0.311-0.067-0.603-0.201-0.874
			c-0.134-0.272-0.309-0.486-0.524-0.642c-0.155-0.104-0.44-0.199-0.854-0.285c-0.415-0.087-0.747-0.139-0.998-0.156v-0.828
			l4.805-0.285l0.181,0.194v17.521c0,0.303,0.056,0.551,0.168,0.745s0.293,0.343,0.544,0.446c0.19,0.087,0.378,0.151,0.563,0.194
			s0.395,0.073,0.628,0.091V464.693z"/>
		<path fill="#FFFFFF" d="M274.006,464.46l-4.17,0.285l-0.195-0.182v-1.618h-0.078c-0.207,0.216-0.439,0.446-0.698,0.692
			s-0.556,0.469-0.892,0.667c-0.388,0.233-0.763,0.41-1.125,0.531c-0.362,0.121-0.875,0.182-1.539,0.182
			c-1.129,0-1.989-0.369-2.58-1.106c-0.59-0.737-0.885-1.809-0.885-3.215v-6.105c0-0.311-0.059-0.571-0.176-0.782
			c-0.117-0.211-0.289-0.395-0.515-0.55c-0.157-0.104-0.352-0.179-0.587-0.227c-0.234-0.047-0.482-0.08-0.743-0.097v-0.855
			l4.261-0.311l0.194,0.182v8.87c0,0.924,0.207,1.619,0.622,2.085s0.911,0.699,1.489,0.699c0.475,0,0.898-0.073,1.27-0.22
			c0.371-0.146,0.682-0.319,0.933-0.518c0.233-0.181,0.438-0.373,0.615-0.575c0.177-0.203,0.313-0.391,0.408-0.563v-7.23
			c0-0.284-0.061-0.536-0.181-0.757c-0.121-0.22-0.29-0.407-0.505-0.563c-0.155-0.104-0.386-0.166-0.693-0.188
			s-0.65-0.041-1.03-0.058v-0.855l4.649-0.311l0.195,0.182v10.128c0,0.294,0.06,0.544,0.181,0.751s0.289,0.383,0.505,0.529
			c0.155,0.096,0.341,0.158,0.557,0.188s0.454,0.049,0.712,0.058V464.46z"/>
		<path fill="#FFFFFF" d="M283.461,464.137c-0.562,0.232-1.092,0.43-1.593,0.589c-0.501,0.16-1.114,0.239-1.839,0.239
			c-1.071,0-1.824-0.27-2.26-0.809c-0.436-0.54-0.654-1.302-0.654-2.286v-8.65h-2.305v-1.243h2.357v-3.976h2.357v3.976h3.666v1.243
			h-3.64v7.136c0,0.535,0.02,0.982,0.058,1.34c0.039,0.358,0.132,0.672,0.279,0.939c0.138,0.25,0.345,0.439,0.622,0.569
			s0.647,0.194,1.114,0.194c0.216,0,0.533-0.02,0.952-0.059c0.418-0.038,0.714-0.088,0.887-0.148V464.137z"/>
		<path fill="#FFFFFF" d="M290.921,464.693h-6.165v-0.854c0.198-0.018,0.403-0.034,0.615-0.052c0.211-0.018,0.395-0.052,0.55-0.104
			c0.242-0.077,0.421-0.213,0.538-0.407s0.175-0.446,0.175-0.757v-7.877c0-0.276-0.063-0.528-0.188-0.757
			c-0.125-0.229-0.3-0.42-0.524-0.575c-0.164-0.104-0.401-0.192-0.712-0.266c-0.311-0.073-0.596-0.118-0.854-0.136v-0.854
			l4.507-0.285l0.182,0.182v10.411c0,0.303,0.058,0.553,0.173,0.751c0.116,0.199,0.298,0.346,0.547,0.44
			c0.188,0.078,0.373,0.141,0.553,0.188c0.18,0.048,0.381,0.08,0.604,0.098V464.693z M289.302,446.732
			c0,0.492-0.162,0.922-0.485,1.288c-0.324,0.367-0.724,0.551-1.198,0.551c-0.44,0-0.822-0.175-1.146-0.524
			c-0.324-0.35-0.485-0.749-0.485-1.198c0-0.475,0.162-0.889,0.485-1.243c0.324-0.354,0.706-0.53,1.146-0.53
			c0.492,0,0.896,0.166,1.211,0.498C289.144,445.906,289.302,446.292,289.302,446.732z"/>
		<path fill="#FFFFFF" d="M304.96,458.18c0,0.898-0.143,1.78-0.428,2.648c-0.285,0.867-0.691,1.604-1.219,2.208
			c-0.597,0.69-1.288,1.204-2.074,1.541c-0.787,0.336-1.668,0.505-2.645,0.505c-0.813,0-1.586-0.153-2.321-0.46
			c-0.735-0.307-1.388-0.753-1.958-1.34c-0.562-0.579-1.009-1.284-1.342-2.117c-0.333-0.833-0.499-1.768-0.499-2.804
			c0-1.994,0.581-3.626,1.744-4.896c1.163-1.269,2.686-1.903,4.57-1.903c1.789,0,3.265,0.603,4.428,1.807
			S304.96,456.177,304.96,458.18z M302.279,458.206c0-0.647-0.065-1.332-0.194-2.053c-0.13-0.721-0.325-1.332-0.584-1.832
			c-0.277-0.536-0.64-0.965-1.09-1.289c-0.45-0.323-0.999-0.485-1.648-0.485c-0.667,0-1.235,0.164-1.706,0.492
			c-0.472,0.328-0.854,0.776-1.148,1.347c-0.277,0.526-0.472,1.126-0.584,1.8c-0.113,0.674-0.168,1.325-0.168,1.955
			c0,0.829,0.067,1.596,0.201,2.299c0.134,0.704,0.348,1.332,0.642,1.884c0.294,0.553,0.664,0.986,1.109,1.302
			c0.445,0.315,0.997,0.473,1.654,0.473c1.081,0,1.938-0.522,2.569-1.566C301.964,461.486,302.279,460.045,302.279,458.206z"/>
		<path fill="#FFFFFF" d="M320.904,464.693h-6.243v-0.854c0.198-0.018,0.417-0.034,0.654-0.052s0.434-0.052,0.589-0.104
			c0.242-0.078,0.421-0.214,0.538-0.408s0.175-0.446,0.175-0.758v-6.565c0-0.906-0.214-1.605-0.643-2.098
			c-0.429-0.492-0.95-0.738-1.564-0.738c-0.459,0-0.878,0.071-1.259,0.214s-0.718,0.317-1.013,0.524
			c-0.286,0.199-0.513,0.412-0.682,0.642c-0.168,0.229-0.292,0.412-0.37,0.55v7.343c0,0.293,0.06,0.535,0.181,0.725
			c0.121,0.19,0.302,0.337,0.544,0.44c0.182,0.087,0.378,0.151,0.589,0.194s0.43,0.073,0.654,0.091v0.854H306.8v-0.854
			c0.198-0.018,0.403-0.034,0.615-0.052c0.211-0.018,0.395-0.052,0.55-0.104c0.242-0.077,0.421-0.213,0.538-0.407
			s0.175-0.446,0.175-0.757v-7.877c0-0.293-0.063-0.563-0.188-0.809c-0.125-0.245-0.3-0.446-0.524-0.602
			c-0.164-0.104-0.358-0.179-0.583-0.226c-0.225-0.048-0.466-0.08-0.725-0.098v-0.854l4.248-0.285l0.182,0.182v1.8h0.064
			c0.208-0.207,0.466-0.455,0.777-0.744c0.311-0.289,0.604-0.524,0.881-0.706c0.319-0.207,0.699-0.38,1.14-0.519
			c0.44-0.138,0.937-0.207,1.489-0.207c1.226,0,2.135,0.383,2.727,1.146c0.591,0.764,0.887,1.78,0.887,3.05v6.643
			c0,0.303,0.052,0.546,0.155,0.731c0.104,0.187,0.281,0.331,0.531,0.435c0.207,0.086,0.386,0.146,0.537,0.181
			c0.151,0.035,0.361,0.061,0.628,0.078V464.693z"/>
		<path fill="#FFFFFF" d="M341.33,458.18c0,0.898-0.143,1.78-0.428,2.648c-0.285,0.867-0.691,1.604-1.219,2.208
			c-0.597,0.69-1.288,1.204-2.074,1.541c-0.787,0.336-1.668,0.505-2.645,0.505c-0.813,0-1.586-0.153-2.321-0.46
			c-0.735-0.307-1.388-0.753-1.958-1.34c-0.562-0.579-1.009-1.284-1.342-2.117c-0.333-0.833-0.499-1.768-0.499-2.804
			c0-1.994,0.581-3.626,1.744-4.896c1.163-1.269,2.686-1.903,4.57-1.903c1.789,0,3.265,0.603,4.428,1.807
			S341.33,456.177,341.33,458.18z M338.648,458.206c0-0.647-0.065-1.332-0.194-2.053c-0.13-0.721-0.325-1.332-0.584-1.832
			c-0.277-0.536-0.64-0.965-1.09-1.289c-0.45-0.323-0.999-0.485-1.648-0.485c-0.667,0-1.235,0.164-1.706,0.492
			c-0.472,0.328-0.854,0.776-1.148,1.347c-0.277,0.526-0.472,1.126-0.584,1.8c-0.113,0.674-0.168,1.325-0.168,1.955
			c0,0.829,0.067,1.596,0.201,2.299c0.134,0.704,0.348,1.332,0.642,1.884c0.294,0.553,0.664,0.986,1.109,1.302
			c0.445,0.315,0.997,0.473,1.654,0.473c1.081,0,1.938-0.522,2.569-1.566C338.333,461.486,338.648,460.045,338.648,458.206z"/>
		<path fill="#FFFFFF" d="M352.675,446.201c0,0.389-0.104,0.717-0.311,0.984c-0.208,0.268-0.522,0.401-0.946,0.401
			c-0.268,0-0.503-0.056-0.706-0.168c-0.203-0.112-0.391-0.264-0.563-0.453c-0.173-0.19-0.333-0.406-0.479-0.647
			c-0.147-0.242-0.272-0.437-0.376-0.583c-0.579,0.025-1.025,0.429-1.34,1.208c-0.315,0.78-0.473,2.022-0.473,3.729v1.305h3.29
			v1.243h-3.29v9.169c0,0.302,0.058,0.548,0.175,0.738c0.117,0.189,0.3,0.332,0.55,0.427c0.208,0.078,0.483,0.141,0.829,0.188
			c0.345,0.048,0.643,0.08,0.894,0.098v0.854h-6.735v-0.854c0.198-0.018,0.403-0.034,0.615-0.052
			c0.211-0.018,0.395-0.052,0.55-0.104c0.242-0.078,0.421-0.214,0.538-0.408s0.175-0.446,0.175-0.758v-9.298h-2.525v-1.243h2.525
			v-0.814c0-1.938,0.503-3.509,1.509-4.711s2.265-1.804,3.775-1.804c0.769,0,1.347,0.151,1.736,0.453
			C352.481,445.403,352.675,445.77,352.675,446.201z"/>
		<path fill="#FFFFFF" d="M366.081,464.137c-0.562,0.232-1.092,0.43-1.593,0.589c-0.501,0.16-1.114,0.239-1.839,0.239
			c-1.071,0-1.824-0.27-2.26-0.809c-0.436-0.54-0.654-1.302-0.654-2.286v-8.65h-2.305v-1.243h2.357v-3.976h2.357v3.976h3.666v1.243
			h-3.64v7.136c0,0.535,0.02,0.982,0.058,1.34c0.039,0.358,0.132,0.672,0.279,0.939c0.138,0.25,0.345,0.439,0.622,0.569
			s0.647,0.194,1.114,0.194c0.216,0,0.533-0.02,0.952-0.059c0.418-0.038,0.714-0.088,0.887-0.148V464.137z"/>
		<path fill="#FFFFFF" d="M381.247,464.693h-6.282v-0.854c0.198-0.018,0.418-0.034,0.661-0.052c0.241-0.018,0.44-0.052,0.596-0.104
			c0.242-0.078,0.421-0.214,0.538-0.408c0.116-0.194,0.175-0.446,0.175-0.758v-6.565c0-0.906-0.214-1.605-0.643-2.098
			c-0.428-0.492-0.95-0.738-1.564-0.738c-0.45,0-0.868,0.071-1.253,0.214s-0.729,0.317-1.032,0.524
			c-0.294,0.216-0.519,0.432-0.675,0.647s-0.277,0.397-0.364,0.544v7.343c0,0.293,0.059,0.535,0.175,0.725
			c0.117,0.19,0.296,0.337,0.538,0.44c0.19,0.087,0.386,0.151,0.589,0.194c0.203,0.043,0.425,0.073,0.667,0.091v0.854h-6.256v-0.854
			c0.197-0.018,0.403-0.037,0.618-0.059s0.395-0.054,0.54-0.098c0.24-0.077,0.42-0.213,0.541-0.407
			c0.12-0.194,0.18-0.447,0.18-0.759v-14.876c0-0.294-0.067-0.588-0.201-0.882s-0.309-0.514-0.524-0.661
			c-0.155-0.111-0.43-0.191-0.822-0.239c-0.393-0.048-0.71-0.08-0.952-0.098v-0.828l4.728-0.285l0.181,0.194v8.909h0.052
			c0.286-0.285,0.545-0.537,0.778-0.758c0.234-0.22,0.541-0.451,0.921-0.692c0.329-0.207,0.716-0.38,1.161-0.519
			c0.445-0.138,0.945-0.207,1.498-0.207c1.142,0,2.02,0.361,2.634,1.082c0.614,0.721,0.921,1.759,0.921,3.114v6.643
			c0,0.303,0.054,0.546,0.163,0.731c0.109,0.187,0.289,0.331,0.542,0.435c0.2,0.077,0.38,0.136,0.541,0.175
			c0.161,0.038,0.372,0.066,0.633,0.084V464.693z"/>
		<path fill="#FFFFFF" d="M394.134,461.689c-0.536,1.019-1.252,1.83-2.15,2.435c-0.898,0.604-1.93,0.906-3.096,0.906
			c-1.027,0-1.928-0.182-2.7-0.544c-0.773-0.362-1.41-0.854-1.911-1.477c-0.501-0.621-0.874-1.347-1.12-2.176
			c-0.246-0.828-0.369-1.704-0.369-2.628c0-0.829,0.131-1.643,0.395-2.441c0.263-0.799,0.649-1.517,1.159-2.156
			c0.492-0.612,1.103-1.107,1.833-1.482c0.729-0.376,1.548-0.563,2.455-0.563c0.933,0,1.731,0.146,2.396,0.44
			c0.665,0.294,1.205,0.695,1.619,1.204c0.397,0.483,0.693,1.054,0.887,1.709c0.194,0.656,0.291,1.369,0.291,2.137v0.855h-8.458
			c0,0.839,0.08,1.601,0.24,2.284s0.412,1.284,0.758,1.804c0.336,0.502,0.777,0.897,1.321,1.188s1.192,0.435,1.943,0.435
			c0.769,0,1.431-0.18,1.988-0.54c0.557-0.36,1.094-1.009,1.612-1.946L394.134,461.689z M391.272,456.82
			c0-0.482-0.041-0.999-0.123-1.55c-0.082-0.55-0.214-1.011-0.395-1.381c-0.199-0.396-0.471-0.719-0.816-0.969
			c-0.346-0.249-0.79-0.374-1.334-0.374c-0.907,0-1.66,0.376-2.26,1.13c-0.6,0.753-0.926,1.801-0.978,3.144H391.272z"/>
		<path fill="#FFFFFF" d="M424.467,464.693h-8.121v-0.919c0.293-0.009,0.671-0.039,1.133-0.091s0.779-0.125,0.952-0.221
			c0.268-0.164,0.464-0.352,0.589-0.563c0.125-0.211,0.188-0.477,0.188-0.796v-13.364h-0.194l-6.269,15.656h-0.647l-5.971-15.979
			h-0.168v10.968c0,1.063,0.067,1.869,0.201,2.422s0.339,0.95,0.615,1.191c0.19,0.182,0.583,0.354,1.179,0.518
			s0.984,0.251,1.166,0.26v0.919h-7.421v-0.919c0.389-0.035,0.797-0.1,1.224-0.194c0.427-0.096,0.758-0.237,0.991-0.428
			c0.302-0.241,0.509-0.613,0.622-1.113c0.112-0.501,0.168-1.339,0.168-2.513v-9.401c0-0.544-0.065-0.988-0.194-1.334
			c-0.129-0.345-0.315-0.625-0.557-0.842c-0.268-0.232-0.596-0.405-0.984-0.518c-0.389-0.112-0.773-0.177-1.153-0.194v-0.919h6.267
			l5.264,13.792l4.495-11.538c0.164-0.423,0.304-0.865,0.42-1.328c0.117-0.462,0.179-0.771,0.188-0.926h5.993v0.919
			c-0.242,0.009-0.551,0.048-0.926,0.116c-0.375,0.069-0.65,0.135-0.822,0.194c-0.294,0.104-0.492,0.276-0.596,0.519
			c-0.104,0.241-0.156,0.505-0.156,0.79v13.247c0,0.302,0.052,0.557,0.156,0.764c0.104,0.207,0.302,0.389,0.596,0.544
			c0.155,0.087,0.432,0.167,0.829,0.24c0.397,0.073,0.712,0.114,0.946,0.123V464.693z"/>
		<path fill="#FFFFFF" d="M440.294,464.46l-4.17,0.285l-0.195-0.182v-1.618h-0.078c-0.207,0.216-0.439,0.446-0.698,0.692
			s-0.556,0.469-0.892,0.667c-0.388,0.233-0.763,0.41-1.125,0.531c-0.362,0.121-0.875,0.182-1.539,0.182
			c-1.129,0-1.989-0.369-2.58-1.106c-0.59-0.737-0.885-1.809-0.885-3.215v-6.105c0-0.311-0.059-0.571-0.176-0.782
			c-0.117-0.211-0.289-0.395-0.515-0.55c-0.157-0.104-0.352-0.179-0.587-0.227c-0.234-0.047-0.482-0.08-0.743-0.097v-0.855
			l4.261-0.311l0.194,0.182v8.87c0,0.924,0.207,1.619,0.622,2.085s0.911,0.699,1.489,0.699c0.475,0,0.898-0.073,1.27-0.22
			c0.371-0.146,0.682-0.319,0.933-0.518c0.233-0.181,0.438-0.373,0.615-0.575c0.177-0.203,0.313-0.391,0.408-0.563v-7.23
			c0-0.284-0.061-0.536-0.181-0.757c-0.121-0.22-0.29-0.407-0.505-0.563c-0.155-0.104-0.386-0.166-0.693-0.188
			s-0.65-0.041-1.03-0.058v-0.855l4.649-0.311l0.195,0.182v10.128c0,0.294,0.06,0.544,0.181,0.751s0.289,0.383,0.505,0.529
			c0.155,0.096,0.341,0.158,0.557,0.188s0.454,0.049,0.712,0.058V464.46z"/>
		<path fill="#FFFFFF" d="M450.293,458.438c0.354,0.312,0.626,0.669,0.816,1.075s0.285,0.902,0.285,1.489
			c0,1.183-0.443,2.149-1.328,2.9c-0.885,0.751-2.032,1.127-3.439,1.127c-0.743,0-1.427-0.134-2.053-0.401s-1.073-0.514-1.34-0.738
			l-0.259,0.842h-0.971l-0.13-4.441h0.894c0.069,0.338,0.215,0.731,0.44,1.183c0.225,0.45,0.497,0.857,0.816,1.221
			c0.336,0.381,0.74,0.702,1.211,0.962c0.47,0.26,0.999,0.39,1.586,0.39c0.829,0,1.468-0.188,1.917-0.566
			c0.449-0.378,0.673-0.919,0.673-1.622c0-0.362-0.071-0.676-0.214-0.938c-0.142-0.264-0.352-0.494-0.628-0.693
			c-0.285-0.198-0.635-0.377-1.049-0.537c-0.414-0.16-0.876-0.317-1.386-0.473c-0.406-0.121-0.857-0.287-1.354-0.499
			c-0.497-0.211-0.922-0.459-1.275-0.744c-0.38-0.302-0.691-0.674-0.933-1.113c-0.242-0.44-0.363-0.959-0.363-1.555
			c0-1.044,0.389-1.929,1.166-2.654c0.777-0.726,1.818-1.088,3.122-1.088c0.5,0,1.012,0.064,1.535,0.194s0.948,0.285,1.276,0.466
			l0.298-0.673h0.933l0.194,4.104h-0.894c-0.181-0.919-0.572-1.666-1.172-2.243c-0.6-0.576-1.332-0.864-2.195-0.864
			c-0.708,0-1.265,0.178-1.671,0.534c-0.406,0.357-0.609,0.787-0.609,1.292c0,0.388,0.067,0.712,0.201,0.971
			c0.133,0.259,0.334,0.479,0.602,0.66c0.259,0.173,0.585,0.335,0.978,0.486c0.393,0.15,0.878,0.321,1.457,0.511
			c0.57,0.182,1.107,0.394,1.612,0.635C449.549,457.878,449.965,458.146,450.293,458.438z"/>
		<path fill="#FFFFFF" d="M459.515,464.693h-6.165v-0.854c0.198-0.018,0.403-0.034,0.615-0.052c0.211-0.018,0.395-0.052,0.55-0.104
			c0.242-0.077,0.421-0.213,0.538-0.407s0.175-0.446,0.175-0.757v-7.877c0-0.276-0.063-0.528-0.188-0.757
			c-0.125-0.229-0.3-0.42-0.524-0.575c-0.164-0.104-0.401-0.192-0.712-0.266c-0.311-0.073-0.596-0.118-0.854-0.136v-0.854
			l4.507-0.285l0.182,0.182v10.411c0,0.303,0.058,0.553,0.173,0.751c0.116,0.199,0.298,0.346,0.547,0.44
			c0.188,0.078,0.373,0.141,0.553,0.188c0.18,0.048,0.381,0.08,0.604,0.098V464.693z M457.896,446.732
			c0,0.492-0.162,0.922-0.485,1.288c-0.324,0.367-0.724,0.551-1.198,0.551c-0.44,0-0.822-0.175-1.146-0.524
			c-0.324-0.35-0.485-0.749-0.485-1.198c0-0.475,0.162-0.889,0.485-1.243c0.324-0.354,0.706-0.53,1.146-0.53
			c0.492,0,0.896,0.166,1.211,0.498C457.738,445.906,457.896,446.292,457.896,446.732z"/>
		<path fill="#FFFFFF" d="M467.001,465.03c-1.848,0-3.294-0.613-4.339-1.839c-1.044-1.226-1.567-2.87-1.567-4.934
			c0-0.898,0.14-1.737,0.421-2.519c0.28-0.781,0.688-1.491,1.224-2.131c0.509-0.612,1.148-1.107,1.917-1.482
			c0.769-0.376,1.606-0.563,2.513-0.563c1.252,0,2.271,0.3,3.057,0.9c0.786,0.6,1.179,1.418,1.179,2.453
			c0,0.433-0.104,0.814-0.311,1.146c-0.207,0.332-0.548,0.499-1.023,0.499c-0.51,0-0.905-0.13-1.185-0.388
			c-0.281-0.258-0.421-0.546-0.421-0.865c0-0.387,0.052-0.785,0.155-1.193c0.104-0.409,0.164-0.708,0.181-0.897
			c-0.155-0.267-0.385-0.445-0.691-0.535c-0.306-0.091-0.635-0.136-0.988-0.136c-0.414,0-0.808,0.089-1.182,0.266
			c-0.375,0.177-0.739,0.503-1.092,0.978c-0.318,0.432-0.577,1.015-0.775,1.748c-0.198,0.733-0.297,1.61-0.297,2.629
			c0,1.605,0.355,2.916,1.067,3.93c0.711,1.015,1.645,1.521,2.799,1.521c0.836,0,1.537-0.203,2.102-0.611s1.088-1.02,1.571-1.836
			l0.828,0.544c-0.57,1.019-1.321,1.826-2.253,2.422C468.957,464.732,467.994,465.03,467.001,465.03z"/>
		<path fill="#FFFFFF" d="M487.906,464.693h-8.277v-0.919c0.233-0.018,0.57-0.044,1.01-0.078c0.441-0.034,0.751-0.086,0.933-0.155
			c0.285-0.112,0.492-0.266,0.621-0.46s0.195-0.464,0.195-0.81V448.96c0-0.303-0.049-0.555-0.143-0.758
			c-0.096-0.203-0.32-0.373-0.674-0.512c-0.26-0.104-0.585-0.2-0.978-0.291c-0.393-0.091-0.715-0.145-0.965-0.162v-0.919h8.277
			v0.919c-0.27,0.009-0.588,0.041-0.959,0.098c-0.371,0.056-0.695,0.127-0.973,0.213c-0.328,0.104-0.547,0.272-0.66,0.506
			c-0.111,0.232-0.168,0.491-0.168,0.776v13.299c0,0.285,0.063,0.538,0.188,0.758c0.125,0.221,0.34,0.396,0.641,0.524
			c0.182,0.069,0.479,0.145,0.889,0.227s0.758,0.128,1.043,0.137V464.693z"/>
		<path fill="#FFFFFF" d="M503.979,464.693h-6.243v-0.854c0.199-0.018,0.417-0.034,0.654-0.052s0.434-0.052,0.59-0.104
			c0.241-0.078,0.421-0.214,0.537-0.408s0.175-0.446,0.175-0.758v-6.565c0-0.906-0.214-1.605-0.643-2.098s-0.95-0.738-1.564-0.738
			c-0.459,0-0.879,0.071-1.26,0.214s-0.718,0.317-1.012,0.524c-0.286,0.199-0.513,0.412-0.682,0.642
			c-0.169,0.229-0.293,0.412-0.37,0.55v7.343c0,0.293,0.061,0.535,0.182,0.725c0.12,0.19,0.302,0.337,0.544,0.44
			c0.181,0.087,0.377,0.151,0.589,0.194s0.43,0.073,0.654,0.091v0.854h-6.256v-0.854c0.198-0.018,0.403-0.034,0.615-0.052
			c0.211-0.018,0.395-0.052,0.551-0.104c0.241-0.077,0.421-0.213,0.537-0.407s0.175-0.446,0.175-0.757v-7.877
			c0-0.293-0.063-0.563-0.188-0.809c-0.126-0.245-0.301-0.446-0.524-0.602c-0.165-0.104-0.358-0.179-0.583-0.226
			c-0.225-0.048-0.467-0.08-0.726-0.098v-0.854l4.248-0.285l0.182,0.182v1.8h0.064c0.207-0.207,0.467-0.455,0.777-0.744
			s0.604-0.524,0.881-0.706c0.319-0.207,0.699-0.38,1.14-0.519c0.44-0.138,0.937-0.207,1.489-0.207c1.227,0,2.135,0.383,2.727,1.146
			c0.591,0.764,0.887,1.78,0.887,3.05v6.643c0,0.303,0.052,0.546,0.156,0.731c0.104,0.187,0.28,0.331,0.53,0.435
			c0.208,0.086,0.387,0.146,0.538,0.181c0.15,0.035,0.36,0.061,0.628,0.078V464.693z"/>
		<path fill="#FFFFFF" d="M519.534,464.46l-4.468,0.285l-0.195-0.182v-1.191l-0.104-0.025c-0.448,0.501-1.002,0.911-1.662,1.23
			c-0.659,0.319-1.339,0.479-2.037,0.479c-0.724,0-1.425-0.161-2.102-0.485c-0.677-0.323-1.266-0.779-1.766-1.366
			c-0.509-0.596-0.912-1.313-1.209-2.149c-0.298-0.838-0.446-1.762-0.446-2.771c0-0.924,0.159-1.8,0.479-2.629
			c0.318-0.828,0.759-1.554,1.319-2.175c0.525-0.579,1.17-1.041,1.934-1.386c0.763-0.346,1.541-0.519,2.334-0.519
			c0.596,0,1.18,0.076,1.753,0.227c0.573,0.151,1.067,0.344,1.481,0.576v-4.45c0-0.363-0.061-0.693-0.182-0.992
			s-0.289-0.525-0.505-0.682c-0.242-0.164-0.568-0.282-0.979-0.356c-0.41-0.073-0.853-0.128-1.327-0.162v-0.803l5.232-0.285
			l0.194,0.194v17.211c0,0.302,0.059,0.559,0.175,0.771c0.116,0.211,0.287,0.39,0.512,0.536c0.164,0.104,0.401,0.169,0.712,0.194
			c0.312,0.026,0.596,0.043,0.855,0.052V464.46z M514.846,462.22v-7.472c-0.069-0.225-0.182-0.466-0.337-0.725
			c-0.154-0.26-0.349-0.497-0.581-0.713c-0.25-0.216-0.543-0.395-0.879-0.537c-0.337-0.143-0.729-0.214-1.177-0.214
			c-0.518,0-0.993,0.134-1.429,0.401c-0.435,0.268-0.82,0.652-1.156,1.152c-0.319,0.484-0.571,1.099-0.757,1.846
			c-0.185,0.747-0.277,1.573-0.277,2.479c0,0.726,0.068,1.384,0.207,1.975c0.138,0.592,0.37,1.143,0.697,1.651
			c0.302,0.483,0.688,0.872,1.157,1.166c0.47,0.293,1.027,0.439,1.674,0.439c0.689,0,1.261-0.15,1.713-0.453
			C514.153,462.915,514.535,462.583,514.846,462.22z"/>
		<path fill="#FFFFFF" d="M534.468,464.46l-4.17,0.285l-0.195-0.182v-1.618h-0.077c-0.207,0.216-0.44,0.446-0.698,0.692
			c-0.259,0.246-0.557,0.469-0.893,0.667c-0.388,0.233-0.763,0.41-1.125,0.531s-0.875,0.182-1.538,0.182
			c-1.13,0-1.99-0.369-2.58-1.106c-0.591-0.737-0.886-1.809-0.886-3.215v-6.105c0-0.311-0.059-0.571-0.176-0.782
			c-0.118-0.211-0.289-0.395-0.516-0.55c-0.156-0.104-0.352-0.179-0.586-0.227c-0.235-0.047-0.482-0.08-0.743-0.097v-0.855
			l4.261-0.311l0.194,0.182v8.87c0,0.924,0.208,1.619,0.622,2.085s0.911,0.699,1.489,0.699c0.475,0,0.898-0.073,1.27-0.22
			s0.682-0.319,0.933-0.518c0.233-0.181,0.438-0.373,0.615-0.575c0.177-0.203,0.313-0.391,0.408-0.563v-7.23
			c0-0.284-0.061-0.536-0.182-0.757c-0.121-0.22-0.289-0.407-0.505-0.563c-0.156-0.104-0.387-0.166-0.693-0.188
			s-0.649-0.041-1.029-0.058v-0.855l4.648-0.311l0.195,0.182v10.128c0,0.294,0.061,0.544,0.182,0.751
			c0.12,0.207,0.289,0.383,0.505,0.529c0.155,0.096,0.341,0.158,0.557,0.188s0.453,0.049,0.713,0.058V464.46z"/>
		<path fill="#FFFFFF" d="M544.467,458.438c0.354,0.312,0.626,0.669,0.815,1.075c0.19,0.406,0.285,0.902,0.285,1.489
			c0,1.183-0.442,2.149-1.327,2.9c-0.886,0.751-2.031,1.127-3.438,1.127c-0.743,0-1.428-0.134-2.054-0.401s-1.072-0.514-1.34-0.738
			l-0.259,0.842h-0.972l-0.13-4.441h0.894c0.069,0.338,0.216,0.731,0.44,1.183c0.225,0.45,0.497,0.857,0.816,1.221
			c0.337,0.381,0.74,0.702,1.211,0.962s0.999,0.39,1.587,0.39c0.828,0,1.468-0.188,1.916-0.566c0.449-0.378,0.674-0.919,0.674-1.622
			c0-0.362-0.071-0.676-0.214-0.938c-0.143-0.264-0.352-0.494-0.628-0.693c-0.285-0.198-0.635-0.377-1.049-0.537
			c-0.415-0.16-0.877-0.317-1.386-0.473c-0.406-0.121-0.857-0.287-1.354-0.499c-0.497-0.211-0.922-0.459-1.276-0.744
			c-0.38-0.302-0.69-0.674-0.933-1.113c-0.241-0.44-0.362-0.959-0.362-1.555c0-1.044,0.389-1.929,1.166-2.654
			c0.776-0.726,1.817-1.088,3.121-1.088c0.501,0,1.013,0.064,1.535,0.194c0.521,0.13,0.947,0.285,1.275,0.466l0.298-0.673h0.933
			l0.194,4.104h-0.894c-0.182-0.919-0.572-1.666-1.173-2.243c-0.6-0.576-1.332-0.864-2.195-0.864c-0.708,0-1.265,0.178-1.67,0.534
			c-0.406,0.357-0.609,0.787-0.609,1.292c0,0.388,0.067,0.712,0.201,0.971s0.334,0.479,0.602,0.66
			c0.26,0.173,0.585,0.335,0.979,0.486c0.393,0.15,0.878,0.321,1.457,0.511c0.569,0.182,1.107,0.394,1.612,0.635
			C543.722,457.878,544.139,458.146,544.467,458.438z"/>
		<path fill="#FFFFFF" d="M555.385,464.137c-0.562,0.232-1.093,0.43-1.593,0.589c-0.501,0.16-1.114,0.239-1.84,0.239
			c-1.07,0-1.824-0.27-2.26-0.809c-0.437-0.54-0.654-1.302-0.654-2.286v-8.65h-2.306v-1.243h2.357v-3.976h2.357v3.976h3.665v1.243
			h-3.639v7.136c0,0.535,0.019,0.982,0.058,1.34c0.039,0.358,0.132,0.672,0.278,0.939c0.139,0.25,0.346,0.439,0.622,0.569
			s0.647,0.194,1.114,0.194c0.215,0,0.532-0.02,0.951-0.059c0.419-0.038,0.715-0.088,0.888-0.148V464.137z"/>
		<path fill="#FFFFFF" d="M566.433,453.569c0,0.44-0.107,0.831-0.323,1.172c-0.216,0.342-0.549,0.512-0.998,0.512
			c-0.483,0-0.853-0.125-1.107-0.375c-0.254-0.251-0.382-0.526-0.382-0.829c0-0.189,0.016-0.362,0.046-0.518
			s0.058-0.312,0.084-0.467c-0.406,0-0.881,0.164-1.425,0.492s-1.006,0.795-1.386,1.398v7.434c0,0.302,0.059,0.548,0.175,0.738
			c0.116,0.189,0.3,0.332,0.551,0.427c0.215,0.087,0.494,0.151,0.835,0.194s0.637,0.073,0.888,0.091v0.854h-6.735v-0.854
			c0.198-0.018,0.403-0.034,0.615-0.052c0.211-0.018,0.395-0.052,0.551-0.104c0.241-0.077,0.421-0.213,0.537-0.407
			s0.175-0.446,0.175-0.757v-7.877c0-0.268-0.063-0.53-0.188-0.789c-0.126-0.259-0.301-0.466-0.524-0.621
			c-0.165-0.104-0.358-0.179-0.583-0.226c-0.225-0.048-0.467-0.08-0.726-0.098v-0.854l4.248-0.285l0.182,0.182v1.8h0.064
			c0.535-0.699,1.131-1.23,1.787-1.593s1.257-0.544,1.801-0.544s0.986,0.177,1.327,0.531
			C566.263,452.499,566.433,452.974,566.433,453.569z"/>
		<path fill="#FFFFFF" d="M566.549,468.863c0-0.432,0.119-0.783,0.356-1.056c0.237-0.271,0.533-0.408,0.887-0.408
			c0.276,0,0.514,0.052,0.712,0.154c0.199,0.104,0.376,0.235,0.531,0.398c0.13,0.129,0.268,0.304,0.414,0.527
			c0.147,0.222,0.264,0.406,0.351,0.552c0.431-0.232,0.947-0.84,1.547-1.821c0.6-0.982,1.034-1.844,1.302-2.585
			c-0.82-2.045-1.563-3.875-2.228-5.488c-0.665-1.614-1.359-3.284-2.085-5.01c-0.164-0.397-0.439-0.706-0.828-0.927
			c-0.389-0.22-0.777-0.36-1.166-0.42v-0.855h5.831v0.907c-0.26,0.008-0.57,0.063-0.933,0.161c-0.363,0.1-0.544,0.214-0.544,0.343
			c0,0.052,0.019,0.139,0.058,0.259c0.039,0.121,0.085,0.246,0.137,0.375c0.327,0.854,0.826,2.086,1.498,3.694
			c0.672,1.609,1.192,2.896,1.563,3.862c0.39-0.923,0.793-1.878,1.213-2.865c0.419-0.988,0.888-2.155,1.406-3.5
			c0.061-0.164,0.147-0.391,0.26-0.68s0.169-0.537,0.169-0.744c0-0.225-0.197-0.434-0.59-0.628c-0.393-0.193-0.767-0.313-1.12-0.355
			v-0.829h4.743v0.803c-0.26,0.044-0.601,0.192-1.023,0.447s-0.738,0.615-0.945,1.081c-1.028,2.383-1.941,4.554-2.739,6.514
			c-0.799,1.96-1.405,3.401-1.82,4.325c-0.544,1.209-1.029,2.151-1.457,2.829c-0.427,0.678-0.844,1.211-1.25,1.6
			c-0.396,0.362-0.757,0.606-1.081,0.731s-0.658,0.188-1.004,0.188c-0.674,0-1.202-0.16-1.587-0.479
			C566.741,469.645,566.549,469.277,566.549,468.863z"/>
		<path fill="#FFFFFF" d="M593.165,464.693H587v-0.854c0.199-0.018,0.404-0.034,0.615-0.052c0.212-0.018,0.396-0.052,0.551-0.104
			c0.242-0.077,0.421-0.213,0.537-0.407c0.117-0.194,0.176-0.446,0.176-0.757v-7.877c0-0.276-0.063-0.528-0.188-0.757
			s-0.3-0.42-0.524-0.575c-0.164-0.104-0.401-0.192-0.712-0.266c-0.312-0.073-0.596-0.118-0.855-0.136v-0.854l4.508-0.285
			l0.181,0.182v10.411c0,0.303,0.059,0.553,0.174,0.751c0.116,0.199,0.298,0.346,0.547,0.44c0.188,0.078,0.373,0.141,0.553,0.188
			c0.181,0.048,0.382,0.08,0.604,0.098V464.693z M591.547,446.732c0,0.492-0.162,0.922-0.486,1.288
			c-0.323,0.367-0.723,0.551-1.198,0.551c-0.439,0-0.822-0.175-1.146-0.524c-0.324-0.35-0.486-0.749-0.486-1.198
			c0-0.475,0.162-0.889,0.486-1.243c0.323-0.354,0.706-0.53,1.146-0.53c0.492,0,0.896,0.166,1.212,0.498
			C591.389,445.906,591.547,446.292,591.547,446.732z"/>
		<path fill="#FFFFFF" d="M608.85,464.693h-6.243v-0.854c0.199-0.018,0.417-0.034,0.654-0.052s0.434-0.052,0.59-0.104
			c0.241-0.078,0.421-0.214,0.537-0.408s0.175-0.446,0.175-0.758v-6.565c0-0.906-0.214-1.605-0.643-2.098s-0.95-0.738-1.564-0.738
			c-0.459,0-0.879,0.071-1.26,0.214s-0.718,0.317-1.012,0.524c-0.286,0.199-0.513,0.412-0.682,0.642
			c-0.169,0.229-0.293,0.412-0.37,0.55v7.343c0,0.293,0.061,0.535,0.182,0.725c0.12,0.19,0.302,0.337,0.544,0.44
			c0.181,0.087,0.377,0.151,0.589,0.194s0.43,0.073,0.654,0.091v0.854h-6.256v-0.854c0.198-0.018,0.403-0.034,0.615-0.052
			c0.211-0.018,0.395-0.052,0.551-0.104c0.241-0.077,0.421-0.213,0.537-0.407s0.175-0.446,0.175-0.757v-7.877
			c0-0.293-0.063-0.563-0.188-0.809c-0.126-0.245-0.301-0.446-0.524-0.602c-0.165-0.104-0.358-0.179-0.583-0.226
			c-0.225-0.048-0.467-0.08-0.726-0.098v-0.854l4.248-0.285l0.182,0.182v1.8h0.064c0.207-0.207,0.467-0.455,0.777-0.744
			s0.604-0.524,0.881-0.706c0.319-0.207,0.699-0.38,1.14-0.519c0.44-0.138,0.937-0.207,1.489-0.207c1.227,0,2.135,0.383,2.727,1.146
			c0.591,0.764,0.887,1.78,0.887,3.05v6.643c0,0.303,0.052,0.546,0.156,0.731c0.104,0.187,0.28,0.331,0.53,0.435
			c0.208,0.086,0.387,0.146,0.538,0.181c0.15,0.035,0.36,0.061,0.628,0.078V464.693z"/>
		<path fill="#FFFFFF" d="M632.099,451.304h-0.894c-0.078-0.311-0.219-0.68-0.422-1.107c-0.204-0.427-0.431-0.831-0.682-1.211
			c-0.26-0.396-0.543-0.744-0.851-1.042c-0.307-0.298-0.604-0.469-0.889-0.512c-0.269-0.034-0.606-0.061-1.013-0.078
			c-0.407-0.017-0.783-0.025-1.13-0.025h-0.753v14.697c0,0.285,0.061,0.547,0.182,0.784s0.332,0.421,0.635,0.55
			c0.155,0.061,0.481,0.143,0.978,0.246c0.497,0.104,0.883,0.16,1.159,0.169v0.919h-8.678v-0.919
			c0.242-0.018,0.611-0.053,1.107-0.104c0.497-0.052,0.84-0.116,1.03-0.193c0.284-0.112,0.494-0.274,0.628-0.486
			c0.134-0.211,0.2-0.494,0.2-0.848v-14.814h-0.751c-0.268,0-0.6,0.007-0.997,0.02s-0.777,0.041-1.14,0.084
			c-0.285,0.034-0.581,0.205-0.888,0.512s-0.589,0.653-0.848,1.042c-0.26,0.389-0.488,0.801-0.687,1.237
			c-0.199,0.436-0.337,0.796-0.415,1.081h-0.906v-4.985h16.021V451.304z"/>
		<path fill="#FFFFFF" d="M647.123,464.693h-6.282v-0.854c0.199-0.018,0.419-0.034,0.661-0.052c0.241-0.018,0.44-0.052,0.596-0.104
			c0.241-0.078,0.421-0.214,0.537-0.408c0.117-0.194,0.175-0.446,0.175-0.758v-6.565c0-0.906-0.214-1.605-0.643-2.098
			s-0.95-0.738-1.564-0.738c-0.45,0-0.867,0.071-1.252,0.214c-0.386,0.143-0.729,0.317-1.032,0.524
			c-0.295,0.216-0.52,0.432-0.676,0.647c-0.155,0.216-0.276,0.397-0.363,0.544v7.343c0,0.293,0.059,0.535,0.175,0.725
			c0.117,0.19,0.296,0.337,0.538,0.44c0.189,0.087,0.386,0.151,0.589,0.194s0.425,0.073,0.667,0.091v0.854h-6.256v-0.854
			c0.197-0.018,0.403-0.037,0.617-0.059c0.215-0.021,0.395-0.054,0.541-0.098c0.24-0.077,0.42-0.213,0.54-0.407
			s0.18-0.447,0.18-0.759v-14.876c0-0.294-0.066-0.588-0.2-0.882s-0.31-0.514-0.524-0.661c-0.156-0.111-0.43-0.191-0.823-0.239
			c-0.393-0.048-0.71-0.08-0.951-0.098v-0.828l4.727-0.285l0.182,0.194v8.909h0.052c0.285-0.285,0.545-0.537,0.778-0.758
			c0.233-0.22,0.541-0.451,0.922-0.692c0.328-0.207,0.715-0.38,1.16-0.519c0.445-0.138,0.945-0.207,1.499-0.207
			c1.142,0,2.02,0.361,2.633,1.082c0.614,0.721,0.922,1.759,0.922,3.114v6.643c0,0.303,0.054,0.546,0.163,0.731
			c0.108,0.187,0.289,0.331,0.541,0.435c0.2,0.077,0.38,0.136,0.541,0.175c0.161,0.038,0.372,0.066,0.633,0.084V464.693z"/>
		<path fill="#FFFFFF" d="M660.01,461.689c-0.535,1.019-1.252,1.83-2.15,2.435c-0.897,0.604-1.93,0.906-3.095,0.906
			c-1.028,0-1.928-0.182-2.701-0.544c-0.772-0.362-1.409-0.854-1.91-1.477c-0.501-0.621-0.874-1.347-1.12-2.176
			c-0.246-0.828-0.369-1.704-0.369-2.628c0-0.829,0.132-1.643,0.395-2.441c0.264-0.799,0.65-1.517,1.159-2.156
			c0.492-0.612,1.104-1.107,1.833-1.482c0.729-0.376,1.548-0.563,2.454-0.563c0.933,0,1.731,0.146,2.396,0.44
			s1.204,0.695,1.619,1.204c0.396,0.483,0.692,1.054,0.887,1.709c0.194,0.656,0.292,1.369,0.292,2.137v0.855h-8.458
			c0,0.839,0.08,1.601,0.24,2.284c0.159,0.684,0.412,1.284,0.757,1.804c0.337,0.502,0.777,0.897,1.321,1.188
			s1.191,0.435,1.943,0.435c0.768,0,1.431-0.18,1.987-0.54c0.558-0.36,1.095-1.009,1.613-1.946L660.01,461.689z M657.147,456.82
			c0-0.482-0.041-0.999-0.123-1.55c-0.082-0.55-0.214-1.011-0.396-1.381c-0.198-0.396-0.471-0.719-0.815-0.969
			c-0.346-0.249-0.79-0.374-1.334-0.374c-0.907,0-1.66,0.376-2.26,1.13c-0.601,0.753-0.927,1.801-0.979,3.144H657.147z"/>
		<path fill="#FFFFFF" d="M690.343,464.693h-8.12v-0.919c0.293-0.009,0.671-0.039,1.133-0.091s0.779-0.125,0.952-0.221
			c0.268-0.164,0.464-0.352,0.589-0.563c0.126-0.211,0.188-0.477,0.188-0.796v-13.364h-0.194l-6.269,15.656h-0.647l-5.972-15.979
			h-0.168v10.968c0,1.063,0.066,1.869,0.201,2.422c0.134,0.553,0.339,0.95,0.615,1.191c0.189,0.182,0.582,0.354,1.178,0.518
			c0.597,0.164,0.984,0.251,1.166,0.26v0.919h-7.421v-0.919c0.388-0.035,0.796-0.1,1.224-0.194c0.428-0.096,0.758-0.237,0.991-0.428
			c0.302-0.241,0.509-0.613,0.621-1.113c0.112-0.501,0.169-1.339,0.169-2.513v-9.401c0-0.544-0.065-0.988-0.194-1.334
			c-0.13-0.345-0.315-0.625-0.558-0.842c-0.268-0.232-0.596-0.405-0.984-0.518s-0.772-0.177-1.152-0.194v-0.919h6.267l5.265,13.792
			l4.494-11.538c0.164-0.423,0.304-0.865,0.42-1.328c0.117-0.462,0.18-0.771,0.188-0.926h5.993v0.919
			c-0.242,0.009-0.551,0.048-0.926,0.116c-0.376,0.069-0.65,0.135-0.823,0.194c-0.293,0.104-0.492,0.276-0.596,0.519
			c-0.104,0.241-0.155,0.505-0.155,0.79v13.247c0,0.302,0.052,0.557,0.155,0.764s0.303,0.389,0.596,0.544
			c0.156,0.087,0.432,0.167,0.829,0.24s0.713,0.114,0.945,0.123V464.693z"/>
		<path fill="#FFFFFF" d="M704.94,458.18c0,0.898-0.143,1.78-0.428,2.648c-0.286,0.867-0.692,1.604-1.219,2.208
			c-0.597,0.69-1.288,1.204-2.075,1.541c-0.786,0.336-1.668,0.505-2.645,0.505c-0.813,0-1.586-0.153-2.321-0.46
			c-0.734-0.307-1.387-0.753-1.957-1.34c-0.563-0.579-1.01-1.284-1.343-2.117c-0.332-0.833-0.499-1.768-0.499-2.804
			c0-1.994,0.582-3.626,1.744-4.896c1.162-1.269,2.686-1.903,4.57-1.903c1.789,0,3.265,0.603,4.428,1.807
			C704.358,454.573,704.94,456.177,704.94,458.18z M702.259,458.206c0-0.647-0.064-1.332-0.194-2.053s-0.324-1.332-0.584-1.832
			c-0.276-0.536-0.641-0.965-1.09-1.289c-0.45-0.323-0.999-0.485-1.648-0.485c-0.666,0-1.234,0.164-1.706,0.492
			s-0.854,0.776-1.148,1.347c-0.276,0.526-0.471,1.126-0.584,1.8c-0.112,0.674-0.168,1.325-0.168,1.955
			c0,0.829,0.066,1.596,0.201,2.299c0.134,0.704,0.348,1.332,0.642,1.884c0.295,0.553,0.664,0.986,1.11,1.302
			c0.445,0.315,0.996,0.473,1.653,0.473c1.082,0,1.938-0.522,2.569-1.566C701.943,461.486,702.259,460.045,702.259,458.206z"/>
		<path fill="#FFFFFF" d="M714.667,464.137c-0.562,0.232-1.093,0.43-1.593,0.589c-0.501,0.16-1.114,0.239-1.84,0.239
			c-1.07,0-1.824-0.27-2.26-0.809c-0.437-0.54-0.654-1.302-0.654-2.286v-8.65h-2.306v-1.243h2.357v-3.976h2.357v3.976h3.665v1.243
			h-3.639v7.136c0,0.535,0.019,0.982,0.058,1.34c0.039,0.358,0.132,0.672,0.278,0.939c0.139,0.25,0.346,0.439,0.622,0.569
			s0.647,0.194,1.114,0.194c0.215,0,0.532-0.02,0.951-0.059c0.419-0.038,0.715-0.088,0.888-0.148V464.137z"/>
		<path fill="#FFFFFF" d="M728.396,458.18c0,0.898-0.143,1.78-0.428,2.648c-0.286,0.867-0.692,1.604-1.219,2.208
			c-0.597,0.69-1.288,1.204-2.075,1.541c-0.786,0.336-1.668,0.505-2.645,0.505c-0.813,0-1.586-0.153-2.321-0.46
			c-0.734-0.307-1.387-0.753-1.957-1.34c-0.563-0.579-1.01-1.284-1.343-2.117c-0.332-0.833-0.499-1.768-0.499-2.804
			c0-1.994,0.582-3.626,1.744-4.896c1.162-1.269,2.686-1.903,4.57-1.903c1.789,0,3.265,0.603,4.428,1.807
			C727.813,454.573,728.396,456.177,728.396,458.18z M725.714,458.206c0-0.647-0.064-1.332-0.194-2.053s-0.324-1.332-0.584-1.832
			c-0.276-0.536-0.641-0.965-1.09-1.289c-0.45-0.323-0.999-0.485-1.648-0.485c-0.666,0-1.234,0.164-1.706,0.492
			s-0.854,0.776-1.148,1.347c-0.276,0.526-0.471,1.126-0.584,1.8c-0.112,0.674-0.168,1.325-0.168,1.955
			c0,0.829,0.066,1.596,0.201,2.299c0.134,0.704,0.348,1.332,0.642,1.884c0.295,0.553,0.664,0.986,1.11,1.302
			c0.445,0.315,0.996,0.473,1.653,0.473c1.082,0,1.938-0.522,2.569-1.566C725.398,461.486,725.714,460.045,725.714,458.206z"/>
		<path fill="#FFFFFF" d="M740.013,453.569c0,0.44-0.107,0.831-0.323,1.172c-0.216,0.342-0.549,0.512-0.998,0.512
			c-0.483,0-0.853-0.125-1.107-0.375c-0.254-0.251-0.382-0.526-0.382-0.829c0-0.189,0.016-0.362,0.046-0.518
			s0.058-0.312,0.084-0.467c-0.406,0-0.881,0.164-1.425,0.492s-1.006,0.795-1.386,1.398v7.434c0,0.302,0.059,0.548,0.175,0.738
			c0.116,0.189,0.3,0.332,0.551,0.427c0.215,0.087,0.494,0.151,0.835,0.194s0.637,0.073,0.888,0.091v0.854h-6.735v-0.854
			c0.198-0.018,0.403-0.034,0.615-0.052c0.211-0.018,0.395-0.052,0.551-0.104c0.241-0.077,0.421-0.213,0.537-0.407
			s0.175-0.446,0.175-0.757v-7.877c0-0.268-0.063-0.53-0.188-0.789c-0.126-0.259-0.301-0.466-0.524-0.621
			c-0.165-0.104-0.358-0.179-0.583-0.226c-0.225-0.048-0.467-0.08-0.726-0.098v-0.854l4.248-0.285l0.182,0.182v1.8h0.064
			c0.535-0.699,1.131-1.23,1.787-1.593s1.257-0.544,1.801-0.544s0.986,0.177,1.327,0.531
			C739.843,452.499,740.013,452.974,740.013,453.569z"/>
		<path fill="#FFFFFF" d="M755.924,465.134c-1.096,0-2.146-0.216-3.151-0.648c-1.005-0.432-1.896-1.054-2.672-1.865
			c-0.769-0.813-1.381-1.804-1.838-2.975c-0.458-1.17-0.687-2.49-0.687-3.958c0-1.469,0.225-2.802,0.674-3.998
			c0.448-1.196,1.069-2.227,1.862-3.091c0.785-0.854,1.713-1.516,2.782-1.982c1.07-0.467,2.213-0.699,3.43-0.699
			c0.905,0,1.725,0.112,2.458,0.336c0.733,0.225,1.433,0.54,2.097,0.945l0.53-0.88h1.036l0.116,6.552H761.5
			c-0.138-0.639-0.345-1.331-0.621-2.078c-0.276-0.746-0.6-1.379-0.971-1.897c-0.414-0.587-0.905-1.046-1.475-1.379
			c-0.569-0.332-1.22-0.498-1.953-0.498c-0.837,0-1.615,0.186-2.335,0.557c-0.72,0.372-1.343,0.921-1.869,1.646
			c-0.5,0.699-0.893,1.59-1.178,2.67c-0.284,1.079-0.427,2.285-0.427,3.615c0,1.175,0.149,2.253,0.446,3.233
			c0.298,0.98,0.723,1.843,1.274,2.585c0.552,0.735,1.205,1.31,1.96,1.725c0.755,0.414,1.598,0.621,2.529,0.621
			c0.699,0,1.342-0.109,1.928-0.33c0.587-0.22,1.096-0.511,1.527-0.874c0.431-0.38,0.81-0.812,1.138-1.295s0.596-1.01,0.803-1.58
			l0.971,0.467c-0.741,1.821-1.725,3.123-2.95,3.904S757.614,465.134,755.924,465.134z"/>
		<path fill="#FFFFFF" d="M770.722,464.693h-6.165v-0.854c0.199-0.018,0.404-0.034,0.615-0.052c0.212-0.018,0.396-0.052,0.551-0.104
			c0.242-0.077,0.421-0.213,0.537-0.407c0.117-0.194,0.176-0.446,0.176-0.757v-7.877c0-0.276-0.063-0.528-0.188-0.757
			s-0.3-0.42-0.524-0.575c-0.164-0.104-0.401-0.192-0.712-0.266c-0.312-0.073-0.596-0.118-0.855-0.136v-0.854l4.508-0.285
			l0.181,0.182v10.411c0,0.303,0.059,0.553,0.174,0.751c0.116,0.199,0.298,0.346,0.547,0.44c0.188,0.078,0.373,0.141,0.553,0.188
			c0.181,0.048,0.382,0.08,0.604,0.098V464.693z M769.104,446.732c0,0.492-0.162,0.922-0.486,1.288
			c-0.323,0.367-0.723,0.551-1.198,0.551c-0.439,0-0.822-0.175-1.146-0.524c-0.324-0.35-0.486-0.749-0.486-1.198
			c0-0.475,0.162-0.889,0.486-1.243c0.323-0.354,0.706-0.53,1.146-0.53c0.492,0,0.896,0.166,1.212,0.498
			C768.945,445.906,769.104,446.292,769.104,446.732z"/>
		<path fill="#FFFFFF" d="M780.19,464.137c-0.562,0.232-1.093,0.43-1.593,0.589c-0.501,0.16-1.114,0.239-1.84,0.239
			c-1.07,0-1.824-0.27-2.26-0.809c-0.437-0.54-0.654-1.302-0.654-2.286v-8.65h-2.306v-1.243h2.357v-3.976h2.357v3.976h3.665v1.243
			h-3.639v7.136c0,0.535,0.019,0.982,0.058,1.34c0.039,0.358,0.132,0.672,0.278,0.939c0.139,0.25,0.346,0.439,0.622,0.569
			s0.647,0.194,1.114,0.194c0.215,0,0.532-0.02,0.951-0.059c0.419-0.038,0.715-0.088,0.888-0.148V464.137z"/>
		<path fill="#FFFFFF" d="M780.487,468.863c0-0.432,0.119-0.783,0.356-1.056c0.237-0.271,0.533-0.408,0.887-0.408
			c0.276,0,0.514,0.052,0.712,0.154c0.199,0.104,0.376,0.235,0.531,0.398c0.13,0.129,0.268,0.304,0.414,0.527
			c0.147,0.222,0.264,0.406,0.351,0.552c0.431-0.232,0.947-0.84,1.547-1.821c0.6-0.982,1.034-1.844,1.302-2.585
			c-0.82-2.045-1.563-3.875-2.228-5.488c-0.665-1.614-1.359-3.284-2.085-5.01c-0.164-0.397-0.439-0.706-0.828-0.927
			c-0.389-0.22-0.777-0.36-1.166-0.42v-0.855h5.831v0.907c-0.26,0.008-0.57,0.063-0.933,0.161c-0.363,0.1-0.544,0.214-0.544,0.343
			c0,0.052,0.019,0.139,0.058,0.259c0.039,0.121,0.085,0.246,0.137,0.375c0.327,0.854,0.826,2.086,1.498,3.694
			c0.672,1.609,1.192,2.896,1.563,3.862c0.39-0.923,0.793-1.878,1.213-2.865c0.419-0.988,0.888-2.155,1.406-3.5
			c0.061-0.164,0.147-0.391,0.26-0.68s0.169-0.537,0.169-0.744c0-0.225-0.197-0.434-0.59-0.628c-0.393-0.193-0.767-0.313-1.12-0.355
			v-0.829h4.743v0.803c-0.26,0.044-0.601,0.192-1.023,0.447s-0.738,0.615-0.945,1.081c-1.028,2.383-1.941,4.554-2.739,6.514
			c-0.799,1.96-1.405,3.401-1.82,4.325c-0.544,1.209-1.029,2.151-1.457,2.829c-0.427,0.678-0.844,1.211-1.25,1.6
			c-0.396,0.362-0.757,0.606-1.081,0.731s-0.658,0.188-1.004,0.188c-0.674,0-1.202-0.16-1.587-0.479
			C780.68,469.645,780.487,469.277,780.487,468.863z"/>
	</g>
	<g>
	</g>
	<g>
	</g>
	<g>
	</g>
	<g>
	</g>
	<g>
	</g>
	<g>
	</g>
	<g>
	</g>
	<g>
	</g>
	<g>
	</g>
	<g>
	</g>
	<g>
	</g>
	<g>
	</g>
	<g>
	</g>
	<g>
	</g>
	<g>
	</g>
	<g>
	</g>
	<g>
	</g>
</g>
</svg>
