<?xml version="1.0" encoding="utf-8"?>
<!-- Generator: Adobe Illustrator 16.0.3, SVG Export Plug-In . SVG Version: 6.00 Build 0)  -->
<!DOCTYPE svg PUBLIC "-//W3C//DTD SVG 1.1//EN" "http://www.w3.org/Graphics/SVG/1.1/DTD/svg11.dtd">
<svg version="1.1" xmlns="http://www.w3.org/2000/svg" xmlns:xlink="http://www.w3.org/1999/xlink" x="0px" y="0px" 
 viewBox="0 0 960 794.444" enable-background="new 0 0 960 794.444" xml:space="preserve">
<g id="Layer_2">
	<g>
		
			<ellipse fill="#FCA306" stroke="#FFFFFF" stroke-width="11" stroke-miterlimit="10" cx="476.018" cy="298.696" rx="165.207" ry="85.551"/>
		<g>
			<g>
				<path d="M649.819,297.803c-0.349,39.408-42.538,63.675-74.801,75.682c-50.772,18.896-108.789,21.044-161.537,9.97
					c-23.324-4.897-46.221-12.849-66.685-25.187c-15.692-9.46-30.139-22.179-38.126-38.948c-6.8-14.276-6.091-30.761,0.858-44.803
					c8.308-16.784,23.654-29.133,39.461-38.491c44.785-26.512,100.947-33.063,151.997-29.421
					c26.155,1.866,52.185,7.214,76.719,16.526c19.552,7.42,38.573,18.042,53.256,33.116
					C641.897,267.473,649.679,281.878,649.819,297.803c0.057,6.445,10.057,6.451,10,0c-0.347-39.254-36.627-65.706-69.141-80.073
					c-48.697-21.519-105.252-26.187-157.616-19.055c-43.306,5.898-92.46,20.729-121.766,55.332
					c-10.86,12.823-17.86,28.707-17.409,45.707c0.455,17.152,8.929,32.677,20.252,45.123c13.92,15.302,32.557,26.113,51.413,34.139
					c23.494,10,48.465,15.72,73.761,18.75c52.273,6.261,108.364,0.299,156.368-22.123c30.814-14.394,63.809-40.7,64.137-77.8
					C659.876,291.352,649.876,291.357,649.819,297.803z"/>
			</g>
		</g>
		<g>
		</g>
	</g>
	<g>
	</g>
	<line fill="#FFFFFF" stroke="#FFFFFF" stroke-width="4" stroke-miterlimit="10" x1="0" y1="297.389" x2="266" y2="297.389"/>
	<line stroke="#FFFFFF" stroke-width="4" stroke-miterlimit="10" x1="695" y1="297.389" x2="960" y2="297.389"/>
	<g>
	</g>
	<g>
	</g>
	<g>
		<rect x="192.952" y="432.838" fill="none" width="533.844" height="97.045"/>
	</g>
	<g>
		<path fill="#FFFFFF" d="M172.34,451.248h-0.893c-0.078-0.311-0.218-0.68-0.421-1.107c-0.204-0.428-0.43-0.83-0.681-1.209
			c-0.26-0.398-0.543-0.744-0.85-1.043c-0.307-0.297-0.604-0.467-0.889-0.51c-0.269-0.035-0.605-0.061-1.012-0.078
			c-0.406-0.018-0.783-0.025-1.128-0.025h-0.752v14.688c0,0.285,0.06,0.545,0.181,0.783c0.121,0.236,0.332,0.42,0.634,0.549
			c0.155,0.061,0.481,0.143,0.977,0.246s0.882,0.16,1.159,0.168v0.92h-8.672v-0.92c0.242-0.016,0.61-0.051,1.107-0.104
			c0.496-0.051,0.839-0.115,1.029-0.193c0.285-0.111,0.494-0.273,0.628-0.486c0.134-0.211,0.201-0.492,0.201-0.848v-14.803h-0.751
			c-0.268,0-0.6,0.006-0.997,0.018c-0.397,0.014-0.776,0.041-1.139,0.086c-0.285,0.033-0.58,0.203-0.886,0.51
			c-0.307,0.307-0.589,0.654-0.848,1.043c-0.259,0.387-0.487,0.799-0.686,1.234c-0.198,0.436-0.336,0.797-0.414,1.082h-0.906v-4.982
			h16.011V451.248z"/>
		<path fill="#FFFFFF" d="M187.354,464.629h-6.278v-0.855c0.199-0.016,0.418-0.033,0.66-0.051s0.44-0.053,0.596-0.104
			c0.241-0.078,0.42-0.213,0.537-0.408c0.116-0.193,0.175-0.445,0.175-0.756v-6.563c0-0.904-0.214-1.604-0.643-2.096
			s-0.949-0.738-1.563-0.738c-0.45,0-0.867,0.072-1.251,0.215c-0.385,0.141-0.729,0.316-1.032,0.523
			c-0.294,0.215-0.519,0.432-0.674,0.646c-0.156,0.217-0.277,0.396-0.363,0.545v7.336c0,0.295,0.058,0.535,0.174,0.725
			c0.117,0.191,0.296,0.338,0.538,0.441c0.189,0.086,0.386,0.15,0.589,0.193c0.203,0.043,0.425,0.074,0.667,0.09v0.855h-6.252
			v-0.855c0.197-0.016,0.403-0.035,0.617-0.057s0.394-0.055,0.54-0.098c0.24-0.078,0.419-0.213,0.54-0.408
			c0.12-0.193,0.18-0.447,0.18-0.758v-14.867c0-0.293-0.067-0.586-0.201-0.881c-0.134-0.293-0.309-0.514-0.524-0.66
			c-0.155-0.111-0.43-0.191-0.822-0.238c-0.393-0.049-0.709-0.08-0.951-0.098v-0.828l4.725-0.285l0.181,0.193v8.904h0.052
			c0.285-0.285,0.544-0.537,0.778-0.758c0.233-0.219,0.54-0.449,0.92-0.691c0.329-0.207,0.715-0.379,1.16-0.518
			c0.445-0.139,0.944-0.207,1.498-0.207c1.141,0,2.018,0.359,2.632,1.08c0.613,0.721,0.92,1.758,0.92,3.113v6.639
			c0,0.301,0.054,0.545,0.163,0.73c0.108,0.186,0.289,0.33,0.541,0.434c0.2,0.078,0.38,0.135,0.541,0.174s0.372,0.068,0.632,0.084
			V464.629z"/>
		<path fill="#FFFFFF" d="M200.233,461.627c-0.535,1.018-1.251,1.828-2.149,2.432s-1.928,0.906-3.093,0.906
			c-1.027,0-1.927-0.182-2.699-0.543c-0.772-0.363-1.409-0.855-1.909-1.477s-0.874-1.346-1.12-2.174s-0.369-1.703-0.369-2.627
			c0-0.828,0.131-1.641,0.395-2.439c0.263-0.797,0.649-1.516,1.159-2.154c0.492-0.613,1.102-1.105,1.831-1.482
			c0.729-0.375,1.547-0.563,2.453-0.563c0.932,0,1.73,0.146,2.395,0.439c0.664,0.295,1.204,0.695,1.618,1.205
			c0.397,0.482,0.692,1.053,0.887,1.707c0.194,0.656,0.291,1.367,0.291,2.137v0.854h-8.452c0,0.838,0.08,1.6,0.239,2.283
			c0.16,0.682,0.412,1.283,0.757,1.803c0.336,0.5,0.776,0.896,1.32,1.186c0.543,0.291,1.19,0.436,1.941,0.436
			c0.768,0,1.43-0.18,1.987-0.541c0.557-0.359,1.094-1.008,1.611-1.943L200.233,461.627z M197.372,456.76
			c0-0.48-0.041-0.998-0.123-1.547c-0.083-0.551-0.214-1.012-0.395-1.381c-0.199-0.396-0.47-0.719-0.815-0.969
			c-0.345-0.248-0.79-0.373-1.333-0.373c-0.906,0-1.659,0.375-2.259,1.129c-0.6,0.752-0.925,1.799-0.977,3.141H197.372z"/>
		<path fill="#FFFFFF" d="M223.88,459.219l-0.35,5.41h-15.247v-0.92c0.259-0.016,0.604-0.053,1.035-0.109s0.712-0.113,0.841-0.174
			c0.276-0.131,0.468-0.299,0.576-0.506s0.162-0.471,0.162-0.789v-13.199c0-0.285-0.047-0.537-0.142-0.758
			c-0.095-0.221-0.293-0.398-0.596-0.537c-0.233-0.111-0.546-0.211-0.938-0.297c-0.393-0.086-0.706-0.139-0.938-0.156v-0.918h14.212
			v4.426h-0.971c-0.173-0.656-0.546-1.354-1.12-2.09c-0.574-0.738-1.12-1.141-1.638-1.211c-0.268-0.033-0.587-0.061-0.958-0.078
			c-0.371-0.016-0.794-0.025-1.269-0.025h-2.886v7.299h2.071c0.664,0,1.15-0.063,1.456-0.188s0.576-0.334,0.809-0.627
			c0.189-0.25,0.352-0.586,0.485-1.004s0.222-0.813,0.265-1.184h0.971v7.195h-0.971c-0.035-0.414-0.127-0.852-0.278-1.314
			c-0.151-0.461-0.309-0.795-0.472-1.002c-0.268-0.336-0.572-0.557-0.913-0.66s-0.792-0.156-1.353-0.156h-2.071v5.504
			c0,0.553,0.039,0.986,0.116,1.307c0.078,0.318,0.229,0.559,0.453,0.723c0.224,0.164,0.531,0.27,0.919,0.316s0.94,0.07,1.657,0.07
			c0.285,0,0.66,0,1.126,0c0.466,0,0.858-0.016,1.178-0.051c0.328-0.035,0.667-0.098,1.016-0.188
			c0.35-0.092,0.598-0.213,0.745-0.369c0.396-0.414,0.813-1.041,1.249-1.883c0.436-0.842,0.714-1.461,0.834-1.857H223.88z"/>
		<path fill="#FFFFFF" d="M238.027,452.658c-0.388,0.068-0.757,0.209-1.106,0.42s-0.649,0.584-0.899,1.119
			c-0.509,1.156-1.036,2.363-1.579,3.617c-0.544,1.256-1.109,2.574-1.696,3.953c-0.173,0.398-0.356,0.867-0.55,1.412
			c-0.194,0.543-0.374,1.064-0.538,1.564h-1.009c-0.82-2.027-1.575-3.875-2.265-5.545s-1.407-3.379-2.148-5.131
			c-0.173-0.396-0.451-0.705-0.835-0.926c-0.384-0.219-0.77-0.359-1.159-0.42v-0.854h5.907v0.904
			c-0.259,0.01-0.583,0.063-0.971,0.162s-0.583,0.234-0.583,0.408c0,0.025,0.021,0.092,0.065,0.199s0.086,0.23,0.129,0.369
			c0.353,0.879,0.852,2.107,1.498,3.684c0.645,1.578,1.17,2.848,1.575,3.814c0.311-0.742,0.701-1.664,1.171-2.768
			c0.471-1.104,0.978-2.336,1.521-3.697c0.086-0.232,0.168-0.449,0.246-0.652s0.116-0.406,0.116-0.613
			c0-0.146-0.071-0.279-0.213-0.395c-0.143-0.117-0.313-0.219-0.511-0.305c-0.199-0.086-0.393-0.15-0.583-0.193
			c-0.19-0.043-0.345-0.072-0.466-0.09v-0.828h4.883V452.658z"/>
		<path fill="#FFFFFF" d="M251.036,458.119c0,0.896-0.143,1.779-0.427,2.646c-0.285,0.867-0.691,1.604-1.218,2.207
			c-0.596,0.689-1.288,1.203-2.073,1.539c-0.786,0.336-1.667,0.506-2.644,0.506c-0.812,0-1.585-0.154-2.319-0.461
			c-0.734-0.305-1.386-0.752-1.957-1.338c-0.561-0.578-1.008-1.283-1.341-2.117c-0.333-0.832-0.499-1.766-0.499-2.801
			c0-1.994,0.581-3.625,1.743-4.893c1.162-1.268,2.684-1.902,4.567-1.902c1.788,0,3.263,0.602,4.425,1.805
			C250.455,454.516,251.036,456.117,251.036,458.119z M248.356,458.145c0-0.646-0.065-1.33-0.194-2.051
			c-0.13-0.721-0.324-1.33-0.583-1.832c-0.277-0.533-0.64-0.963-1.089-1.287c-0.45-0.322-0.999-0.484-1.647-0.484
			c-0.666,0-1.234,0.164-1.705,0.492c-0.471,0.326-0.854,0.775-1.147,1.346c-0.276,0.525-0.471,1.125-0.583,1.799
			c-0.113,0.672-0.168,1.324-0.168,1.953c0,0.828,0.067,1.594,0.201,2.297c0.134,0.703,0.348,1.332,0.642,1.883
			c0.294,0.553,0.664,0.986,1.109,1.301c0.445,0.314,0.996,0.473,1.653,0.473c1.081,0,1.937-0.521,2.567-1.566
			C248.041,461.424,248.356,459.982,248.356,458.145z"/>
		<path fill="#FFFFFF" d="M258.854,464.629h-6.226v-0.855c0.198-0.016,0.41-0.035,0.634-0.057c0.224-0.021,0.41-0.055,0.557-0.098
			c0.241-0.078,0.422-0.213,0.543-0.408c0.121-0.193,0.181-0.447,0.181-0.758v-14.789c0-0.311-0.067-0.602-0.201-0.875
			c-0.134-0.271-0.309-0.484-0.524-0.641c-0.155-0.104-0.44-0.197-0.854-0.285c-0.414-0.086-0.747-0.137-0.997-0.154v-0.828
			l4.802-0.285l0.181,0.193v17.51c0,0.303,0.056,0.551,0.168,0.744s0.293,0.344,0.544,0.447c0.189,0.086,0.377,0.15,0.563,0.193
			c0.186,0.043,0.395,0.074,0.627,0.09V464.629z"/>
		<path fill="#FFFFFF" d="M274.14,464.395l-4.167,0.285l-0.195-0.182v-1.617h-0.077c-0.207,0.217-0.439,0.447-0.698,0.693
			c-0.258,0.246-0.555,0.467-0.891,0.666c-0.388,0.232-0.763,0.41-1.125,0.531c-0.362,0.119-0.875,0.18-1.538,0.18
			c-1.128,0-1.988-0.367-2.578-1.104c-0.59-0.738-0.885-1.809-0.885-3.213v-6.102c0-0.311-0.059-0.572-0.176-0.783
			s-0.289-0.395-0.515-0.549c-0.156-0.104-0.352-0.18-0.586-0.227c-0.235-0.047-0.482-0.08-0.743-0.098v-0.854l4.258-0.311
			l0.194,0.182v8.865c0,0.922,0.207,1.617,0.621,2.082c0.415,0.467,0.911,0.699,1.489,0.699c0.475,0,0.897-0.072,1.269-0.219
			c0.371-0.146,0.682-0.32,0.932-0.518c0.233-0.182,0.438-0.373,0.615-0.576c0.177-0.201,0.313-0.389,0.408-0.561v-7.227
			c0-0.283-0.06-0.535-0.181-0.756c-0.121-0.219-0.289-0.406-0.505-0.563c-0.155-0.104-0.386-0.166-0.692-0.188
			s-0.649-0.041-1.029-0.059v-0.854l4.646-0.311l0.195,0.182v10.121c0,0.293,0.06,0.543,0.181,0.75
			c0.121,0.207,0.289,0.383,0.505,0.529c0.155,0.096,0.341,0.158,0.557,0.188c0.215,0.031,0.453,0.051,0.712,0.059V464.395z"/>
		<path fill="#FFFFFF" d="M283.588,464.072c-0.561,0.232-1.092,0.43-1.592,0.588c-0.501,0.16-1.113,0.24-1.838,0.24
			c-1.07,0-1.823-0.27-2.258-0.809c-0.436-0.539-0.654-1.301-0.654-2.285v-8.645h-2.304v-1.242h2.355v-3.973h2.356v3.973h3.663
			v1.242h-3.637v7.131c0,0.535,0.019,0.982,0.058,1.34c0.039,0.357,0.131,0.67,0.278,0.938c0.138,0.25,0.345,0.441,0.621,0.57
			s0.647,0.193,1.113,0.193c0.215,0,0.533-0.02,0.951-0.059s0.714-0.088,0.887-0.148V464.072z"/>
		<path fill="#FFFFFF" d="M291.044,464.629h-6.161v-0.855c0.198-0.016,0.403-0.033,0.615-0.051c0.211-0.018,0.395-0.051,0.55-0.104
			c0.242-0.078,0.421-0.213,0.537-0.406c0.117-0.195,0.175-0.447,0.175-0.758v-7.871c0-0.275-0.063-0.527-0.188-0.756
			s-0.3-0.42-0.524-0.576c-0.164-0.102-0.401-0.191-0.712-0.264c-0.311-0.074-0.595-0.119-0.854-0.137v-0.854l4.504-0.285
			l0.181,0.182v10.404c0,0.303,0.058,0.553,0.173,0.75c0.116,0.199,0.298,0.346,0.546,0.441c0.188,0.076,0.373,0.141,0.553,0.188
			c0.18,0.047,0.381,0.08,0.604,0.096V464.629z M289.426,446.68c0,0.492-0.162,0.92-0.485,1.287s-0.723,0.551-1.197,0.551
			c-0.44,0-0.822-0.176-1.146-0.525s-0.485-0.748-0.485-1.197c0-0.475,0.162-0.889,0.485-1.242s0.706-0.529,1.146-0.529
			c0.492,0,0.895,0.166,1.21,0.498S289.426,446.238,289.426,446.68z"/>
		<path fill="#FFFFFF" d="M305.074,458.119c0,0.896-0.143,1.779-0.427,2.646c-0.285,0.867-0.691,1.604-1.218,2.207
			c-0.596,0.689-1.288,1.203-2.073,1.539c-0.786,0.336-1.667,0.506-2.644,0.506c-0.812,0-1.585-0.154-2.319-0.461
			c-0.734-0.305-1.386-0.752-1.957-1.338c-0.561-0.578-1.008-1.283-1.341-2.117c-0.333-0.832-0.499-1.766-0.499-2.801
			c0-1.994,0.581-3.625,1.743-4.893c1.162-1.268,2.684-1.902,4.567-1.902c1.788,0,3.263,0.602,4.425,1.805
			C304.493,454.516,305.074,456.117,305.074,458.119z M302.395,458.145c0-0.646-0.065-1.33-0.194-2.051
			c-0.13-0.721-0.324-1.33-0.583-1.832c-0.277-0.533-0.64-0.963-1.089-1.287c-0.45-0.322-0.999-0.484-1.647-0.484
			c-0.666,0-1.234,0.164-1.705,0.492c-0.471,0.326-0.854,0.775-1.147,1.346c-0.276,0.525-0.471,1.125-0.583,1.799
			c-0.113,0.672-0.168,1.324-0.168,1.953c0,0.828,0.067,1.594,0.201,2.297c0.134,0.703,0.348,1.332,0.642,1.883
			c0.294,0.553,0.664,0.986,1.109,1.301c0.445,0.314,0.996,0.473,1.653,0.473c1.081,0,1.937-0.521,2.567-1.566
			C302.08,461.424,302.395,459.982,302.395,458.145z"/>
		<path fill="#FFFFFF" d="M321.008,464.629h-6.239v-0.855c0.198-0.016,0.416-0.033,0.654-0.051c0.237-0.018,0.434-0.053,0.589-0.104
			c0.241-0.078,0.42-0.213,0.537-0.408c0.116-0.193,0.175-0.445,0.175-0.756v-6.563c0-0.904-0.214-1.604-0.643-2.096
			s-0.949-0.738-1.563-0.738c-0.458,0-0.878,0.072-1.259,0.215c-0.38,0.141-0.718,0.316-1.012,0.523
			c-0.286,0.199-0.513,0.412-0.681,0.641c-0.169,0.229-0.292,0.412-0.37,0.551v7.336c0,0.295,0.06,0.535,0.181,0.725
			c0.121,0.191,0.302,0.338,0.543,0.441c0.181,0.086,0.377,0.15,0.589,0.193s0.429,0.074,0.654,0.09v0.855h-6.251v-0.855
			c0.198-0.016,0.403-0.033,0.615-0.051c0.211-0.018,0.395-0.051,0.55-0.104c0.242-0.078,0.421-0.213,0.537-0.406
			c0.117-0.195,0.175-0.447,0.175-0.758v-7.871c0-0.293-0.063-0.563-0.188-0.809c-0.125-0.244-0.3-0.445-0.524-0.6
			c-0.164-0.104-0.358-0.18-0.583-0.227c-0.224-0.047-0.466-0.08-0.725-0.098v-0.854l4.246-0.285l0.181,0.182v1.799h0.064
			c0.207-0.207,0.466-0.455,0.777-0.744s0.604-0.523,0.88-0.705c0.319-0.207,0.699-0.379,1.139-0.518s0.936-0.207,1.488-0.207
			c1.226,0,2.134,0.381,2.725,1.145c0.591,0.764,0.887,1.779,0.887,3.049v6.639c0,0.301,0.052,0.545,0.155,0.73
			s0.28,0.33,0.531,0.434c0.207,0.086,0.386,0.146,0.537,0.182c0.151,0.033,0.36,0.061,0.628,0.076V464.629z"/>
		<path fill="#FFFFFF" d="M341.419,458.119c0,0.896-0.143,1.779-0.427,2.646c-0.285,0.867-0.691,1.604-1.218,2.207
			c-0.596,0.689-1.288,1.203-2.073,1.539c-0.786,0.336-1.667,0.506-2.644,0.506c-0.812,0-1.585-0.154-2.319-0.461
			c-0.734-0.305-1.386-0.752-1.957-1.338c-0.561-0.578-1.008-1.283-1.341-2.117c-0.333-0.832-0.499-1.766-0.499-2.801
			c0-1.994,0.581-3.625,1.743-4.893c1.162-1.268,2.684-1.902,4.567-1.902c1.788,0,3.263,0.602,4.425,1.805
			C340.838,454.516,341.419,456.117,341.419,458.119z M338.74,458.145c0-0.646-0.065-1.33-0.194-2.051
			c-0.13-0.721-0.324-1.33-0.583-1.832c-0.277-0.533-0.64-0.963-1.089-1.287c-0.45-0.322-0.999-0.484-1.647-0.484
			c-0.666,0-1.234,0.164-1.705,0.492c-0.471,0.326-0.854,0.775-1.147,1.346c-0.276,0.525-0.471,1.125-0.583,1.799
			c-0.113,0.672-0.168,1.324-0.168,1.953c0,0.828,0.067,1.594,0.201,2.297c0.134,0.703,0.348,1.332,0.642,1.883
			c0.294,0.553,0.664,0.986,1.109,1.301c0.445,0.314,0.996,0.473,1.653,0.473c1.081,0,1.937-0.521,2.567-1.566
			C338.425,461.424,338.74,459.982,338.74,458.145z"/>
		<path fill="#FFFFFF" d="M352.758,446.148c0,0.389-0.104,0.717-0.311,0.984s-0.522,0.4-0.945,0.4c-0.268,0-0.502-0.057-0.705-0.168
			c-0.203-0.111-0.391-0.264-0.563-0.453c-0.172-0.189-0.332-0.406-0.479-0.646c-0.147-0.242-0.272-0.436-0.375-0.582
			c-0.578,0.025-1.025,0.428-1.34,1.207s-0.472,2.021-0.472,3.725v1.305h3.288v1.242h-3.288v9.162c0,0.303,0.058,0.549,0.175,0.738
			c0.116,0.189,0.299,0.332,0.55,0.428c0.207,0.076,0.483,0.141,0.829,0.188c0.345,0.047,0.643,0.08,0.893,0.096v0.855h-6.73v-0.855
			c0.198-0.016,0.403-0.033,0.615-0.051c0.211-0.018,0.395-0.053,0.55-0.104c0.242-0.078,0.421-0.213,0.537-0.408
			c0.117-0.193,0.175-0.445,0.175-0.756v-9.293h-2.524v-1.242h2.524v-0.814c0-1.938,0.503-3.506,1.508-4.707
			c1.005-1.201,2.263-1.803,3.773-1.803c0.768,0,1.346,0.15,1.734,0.453C352.564,445.352,352.758,445.717,352.758,446.148z"/>
		<path fill="#FFFFFF" d="M366.154,464.072c-0.561,0.232-1.092,0.43-1.592,0.588c-0.501,0.16-1.113,0.24-1.838,0.24
			c-1.07,0-1.823-0.27-2.258-0.809c-0.436-0.539-0.654-1.301-0.654-2.285v-8.645h-2.304v-1.242h2.355v-3.973h2.356v3.973h3.663
			v1.242h-3.637v7.131c0,0.535,0.019,0.982,0.058,1.34c0.039,0.357,0.131,0.67,0.278,0.938c0.138,0.25,0.345,0.441,0.621,0.57
			s0.647,0.193,1.113,0.193c0.215,0,0.533-0.02,0.951-0.059s0.714-0.088,0.887-0.148V464.072z"/>
		<path fill="#FFFFFF" d="M381.312,464.629h-6.278v-0.855c0.199-0.016,0.418-0.033,0.66-0.051s0.44-0.053,0.596-0.104
			c0.241-0.078,0.42-0.213,0.537-0.408c0.116-0.193,0.175-0.445,0.175-0.756v-6.563c0-0.904-0.214-1.604-0.643-2.096
			s-0.949-0.738-1.563-0.738c-0.45,0-0.867,0.072-1.251,0.215c-0.385,0.141-0.729,0.316-1.032,0.523
			c-0.294,0.215-0.519,0.432-0.674,0.646c-0.156,0.217-0.277,0.396-0.363,0.545v7.336c0,0.295,0.058,0.535,0.174,0.725
			c0.117,0.191,0.296,0.338,0.538,0.441c0.189,0.086,0.386,0.15,0.589,0.193c0.203,0.043,0.425,0.074,0.667,0.09v0.855h-6.252
			v-0.855c0.197-0.016,0.403-0.035,0.617-0.057s0.394-0.055,0.54-0.098c0.24-0.078,0.419-0.213,0.54-0.408
			c0.12-0.193,0.18-0.447,0.18-0.758v-14.867c0-0.293-0.067-0.586-0.201-0.881c-0.134-0.293-0.309-0.514-0.524-0.66
			c-0.155-0.111-0.43-0.191-0.822-0.238c-0.393-0.049-0.709-0.08-0.951-0.098v-0.828l4.725-0.285l0.181,0.193v8.904h0.052
			c0.285-0.285,0.544-0.537,0.778-0.758c0.233-0.219,0.54-0.449,0.92-0.691c0.329-0.207,0.715-0.379,1.16-0.518
			c0.445-0.139,0.944-0.207,1.498-0.207c1.141,0,2.018,0.359,2.632,1.08c0.613,0.721,0.92,1.758,0.92,3.113v6.639
			c0,0.301,0.054,0.545,0.163,0.73c0.108,0.186,0.289,0.33,0.541,0.434c0.2,0.078,0.38,0.135,0.541,0.174s0.372,0.068,0.632,0.084
			V464.629z"/>
		<path fill="#FFFFFF" d="M394.19,461.627c-0.535,1.018-1.251,1.828-2.149,2.432s-1.928,0.906-3.093,0.906
			c-1.027,0-1.927-0.182-2.699-0.543c-0.772-0.363-1.409-0.855-1.909-1.477s-0.874-1.346-1.12-2.174s-0.369-1.703-0.369-2.627
			c0-0.828,0.131-1.641,0.395-2.439c0.263-0.797,0.649-1.516,1.159-2.154c0.492-0.613,1.102-1.105,1.831-1.482
			c0.729-0.375,1.547-0.563,2.453-0.563c0.932,0,1.73,0.146,2.395,0.439c0.664,0.295,1.204,0.695,1.618,1.205
			c0.397,0.482,0.692,1.053,0.887,1.707c0.194,0.656,0.291,1.367,0.291,2.137v0.854h-8.452c0,0.838,0.08,1.6,0.239,2.283
			c0.16,0.682,0.412,1.283,0.757,1.803c0.336,0.5,0.776,0.896,1.32,1.186c0.543,0.291,1.19,0.436,1.941,0.436
			c0.768,0,1.43-0.18,1.987-0.541c0.557-0.359,1.094-1.008,1.611-1.943L394.19,461.627z M391.329,456.76
			c0-0.48-0.041-0.998-0.123-1.547c-0.083-0.551-0.214-1.012-0.395-1.381c-0.199-0.396-0.47-0.719-0.815-0.969
			c-0.345-0.248-0.79-0.373-1.333-0.373c-0.906,0-1.659,0.375-2.259,1.129c-0.6,0.752-0.925,1.799-0.977,3.141H391.329z"/>
		<path fill="#FFFFFF" d="M424.503,464.629h-8.116v-0.92c0.293-0.008,0.671-0.039,1.133-0.09c0.461-0.053,0.778-0.125,0.951-0.221
			c0.267-0.164,0.464-0.352,0.589-0.563s0.188-0.477,0.188-0.795v-13.355h-0.194l-6.265,15.645h-0.647l-5.967-15.969h-0.168v10.961
			c0,1.061,0.066,1.869,0.2,2.42c0.134,0.553,0.339,0.949,0.615,1.191c0.189,0.182,0.582,0.354,1.178,0.518
			c0.595,0.164,0.983,0.25,1.165,0.258v0.92h-7.417v-0.92c0.389-0.033,0.796-0.098,1.223-0.193c0.427-0.096,0.757-0.238,0.99-0.428
			c0.302-0.24,0.509-0.611,0.622-1.113c0.112-0.5,0.168-1.336,0.168-2.51v-9.395c0-0.545-0.064-0.988-0.194-1.334
			c-0.129-0.344-0.315-0.625-0.557-0.84c-0.268-0.234-0.596-0.406-0.984-0.518c-0.388-0.113-0.772-0.178-1.152-0.195v-0.918h6.262
			l5.261,13.783l4.491-11.531c0.164-0.422,0.304-0.865,0.42-1.326c0.117-0.463,0.179-0.771,0.188-0.926h5.99v0.918
			c-0.242,0.01-0.55,0.047-0.926,0.117c-0.375,0.068-0.649,0.133-0.822,0.193c-0.293,0.104-0.492,0.277-0.595,0.518
			c-0.104,0.242-0.155,0.506-0.155,0.789v13.24c0,0.301,0.052,0.555,0.155,0.764c0.104,0.207,0.302,0.387,0.595,0.543
			c0.155,0.086,0.432,0.166,0.829,0.238c0.396,0.074,0.712,0.115,0.945,0.123V464.629z"/>
		<path fill="#FFFFFF" d="M440.32,464.395l-4.167,0.285l-0.195-0.182v-1.617h-0.077c-0.207,0.217-0.439,0.447-0.698,0.693
			c-0.258,0.246-0.555,0.467-0.891,0.666c-0.388,0.232-0.763,0.41-1.125,0.531c-0.362,0.119-0.875,0.18-1.538,0.18
			c-1.128,0-1.988-0.367-2.578-1.104c-0.59-0.738-0.885-1.809-0.885-3.213v-6.102c0-0.311-0.059-0.572-0.176-0.783
			s-0.289-0.395-0.515-0.549c-0.156-0.104-0.352-0.18-0.586-0.227c-0.235-0.047-0.482-0.08-0.743-0.098v-0.854l4.258-0.311
			l0.194,0.182v8.865c0,0.922,0.207,1.617,0.621,2.082c0.415,0.467,0.911,0.699,1.489,0.699c0.475,0,0.897-0.072,1.269-0.219
			c0.371-0.146,0.682-0.32,0.932-0.518c0.233-0.182,0.438-0.373,0.615-0.576c0.177-0.201,0.313-0.389,0.408-0.561v-7.227
			c0-0.283-0.06-0.535-0.181-0.756c-0.121-0.219-0.289-0.406-0.505-0.563c-0.155-0.104-0.386-0.166-0.692-0.188
			s-0.649-0.041-1.029-0.059v-0.854l4.646-0.311l0.195,0.182v10.121c0,0.293,0.06,0.543,0.181,0.75
			c0.121,0.207,0.289,0.383,0.505,0.529c0.155,0.096,0.341,0.158,0.557,0.188c0.215,0.031,0.453,0.051,0.712,0.059V464.395z"/>
		<path fill="#FFFFFF" d="M450.313,458.377c0.354,0.311,0.625,0.67,0.815,1.074c0.19,0.406,0.285,0.902,0.285,1.488
			c0,1.184-0.442,2.148-1.327,2.9c-0.884,0.75-2.03,1.125-3.436,1.125c-0.743,0-1.426-0.135-2.052-0.4
			c-0.625-0.268-1.072-0.514-1.34-0.738L443,464.668h-0.971l-0.129-4.439h0.893c0.069,0.338,0.216,0.732,0.44,1.182
			c0.225,0.451,0.496,0.857,0.815,1.221c0.337,0.381,0.74,0.701,1.21,0.961s0.999,0.389,1.585,0.389
			c0.829,0,1.467-0.188,1.916-0.564c0.449-0.379,0.673-0.918,0.673-1.621c0-0.363-0.071-0.676-0.214-0.939
			c-0.142-0.262-0.352-0.492-0.627-0.691c-0.285-0.199-0.634-0.377-1.048-0.537c-0.415-0.16-0.876-0.316-1.385-0.473
			c-0.406-0.121-0.856-0.287-1.353-0.498s-0.921-0.459-1.275-0.744c-0.38-0.303-0.69-0.674-0.932-1.113
			c-0.242-0.439-0.363-0.957-0.363-1.553c0-1.043,0.389-1.928,1.165-2.652c0.777-0.725,1.816-1.088,3.119-1.088
			c0.5,0,1.012,0.064,1.534,0.195c0.522,0.129,0.947,0.283,1.275,0.465l0.297-0.672h0.932l0.194,4.102h-0.893
			c-0.182-0.918-0.572-1.666-1.171-2.242c-0.6-0.576-1.332-0.863-2.194-0.863c-0.708,0-1.264,0.178-1.669,0.533
			c-0.406,0.357-0.608,0.787-0.608,1.291c0,0.389,0.067,0.711,0.201,0.971c0.134,0.258,0.334,0.479,0.602,0.66
			c0.259,0.172,0.584,0.334,0.977,0.484c0.393,0.152,0.878,0.322,1.456,0.512c0.569,0.182,1.107,0.393,1.611,0.635
			C449.568,457.816,449.985,458.084,450.313,458.377z"/>
		<path fill="#FFFFFF" d="M459.528,464.629h-6.161v-0.855c0.198-0.016,0.403-0.033,0.615-0.051c0.211-0.018,0.395-0.051,0.55-0.104
			c0.242-0.078,0.421-0.213,0.537-0.406c0.117-0.195,0.175-0.447,0.175-0.758v-7.871c0-0.275-0.063-0.527-0.188-0.756
			s-0.3-0.42-0.524-0.576c-0.164-0.102-0.401-0.191-0.712-0.264c-0.311-0.074-0.595-0.119-0.854-0.137v-0.854l4.504-0.285
			l0.181,0.182v10.404c0,0.303,0.058,0.553,0.173,0.75c0.116,0.199,0.298,0.346,0.546,0.441c0.188,0.076,0.373,0.141,0.553,0.188
			c0.18,0.047,0.381,0.08,0.604,0.096V464.629z M457.911,446.68c0,0.492-0.162,0.92-0.485,1.287s-0.723,0.551-1.197,0.551
			c-0.44,0-0.822-0.176-1.146-0.525s-0.485-0.748-0.485-1.197c0-0.475,0.162-0.889,0.485-1.242s0.706-0.529,1.146-0.529
			c0.492,0,0.895,0.166,1.21,0.498S457.911,446.238,457.911,446.68z"/>
		<path fill="#FFFFFF" d="M467.009,464.965c-1.847,0-3.292-0.613-4.336-1.838s-1.566-2.869-1.566-4.93
			c0-0.898,0.14-1.736,0.42-2.518s0.688-1.49,1.223-2.129c0.509-0.613,1.147-1.105,1.916-1.482c0.768-0.375,1.605-0.563,2.511-0.563
			c1.251,0,2.27,0.301,3.055,0.9s1.178,1.416,1.178,2.451c0,0.432-0.104,0.814-0.311,1.146s-0.548,0.498-1.022,0.498
			c-0.509,0-0.904-0.129-1.185-0.387c-0.28-0.26-0.42-0.547-0.42-0.865c0-0.387,0.052-0.785,0.155-1.193s0.164-0.707,0.181-0.896
			c-0.155-0.266-0.385-0.445-0.691-0.535s-0.635-0.135-0.987-0.135c-0.414,0-0.807,0.088-1.182,0.266
			c-0.375,0.176-0.738,0.502-1.091,0.977c-0.318,0.432-0.577,1.014-0.774,1.746c-0.198,0.734-0.297,1.609-0.297,2.627
			c0,1.605,0.355,2.914,1.066,3.928s1.644,1.521,2.798,1.521c0.836,0,1.536-0.205,2.1-0.611c0.564-0.408,1.088-1.02,1.57-1.834
			l0.827,0.543c-0.569,1.018-1.32,1.824-2.252,2.42C468.964,464.668,468.001,464.965,467.009,464.965z"/>
		<path fill="#FFFFFF" d="M487.9,464.629h-8.271v-0.92c0.233-0.016,0.569-0.043,1.01-0.076c0.44-0.035,0.75-0.088,0.931-0.156
			c0.285-0.111,0.492-0.266,0.622-0.459c0.13-0.195,0.194-0.465,0.194-0.809v-13.305c0-0.301-0.048-0.553-0.143-0.756
			c-0.096-0.203-0.319-0.373-0.674-0.512c-0.258-0.104-0.584-0.201-0.977-0.291s-0.714-0.145-0.964-0.162v-0.918h8.271v0.918
			c-0.268,0.01-0.587,0.041-0.958,0.098s-0.694,0.127-0.971,0.213c-0.328,0.104-0.548,0.271-0.66,0.506
			c-0.112,0.232-0.168,0.49-0.168,0.775v13.291c0,0.285,0.063,0.537,0.188,0.756c0.125,0.221,0.339,0.396,0.641,0.525
			c0.181,0.068,0.477,0.145,0.887,0.227c0.409,0.082,0.757,0.127,1.042,0.135V464.629z"/>
		<path fill="#FFFFFF" d="M503.963,464.629h-6.238v-0.855c0.197-0.016,0.416-0.033,0.653-0.051s0.434-0.053,0.589-0.104
			c0.241-0.078,0.42-0.213,0.537-0.408c0.116-0.193,0.175-0.445,0.175-0.756v-6.563c0-0.904-0.214-1.604-0.643-2.096
			s-0.949-0.738-1.563-0.738c-0.458,0-0.877,0.072-1.258,0.215c-0.381,0.141-0.719,0.316-1.012,0.523
			c-0.286,0.199-0.514,0.412-0.682,0.641c-0.169,0.229-0.292,0.412-0.369,0.551v7.336c0,0.295,0.06,0.535,0.181,0.725
			c0.12,0.191,0.302,0.338,0.544,0.441c0.181,0.086,0.377,0.15,0.588,0.193c0.212,0.043,0.43,0.074,0.654,0.09v0.855h-6.252v-0.855
			c0.199-0.016,0.403-0.033,0.615-0.051c0.211-0.018,0.395-0.051,0.55-0.104c0.241-0.078,0.421-0.213,0.537-0.406
			c0.116-0.195,0.175-0.447,0.175-0.758v-7.871c0-0.293-0.063-0.563-0.188-0.809c-0.125-0.244-0.3-0.445-0.524-0.6
			c-0.164-0.104-0.358-0.18-0.583-0.227c-0.224-0.047-0.465-0.08-0.725-0.098v-0.854l4.246-0.285l0.182,0.182v1.799h0.064
			c0.207-0.207,0.466-0.455,0.776-0.744s0.604-0.523,0.88-0.705c0.319-0.207,0.699-0.379,1.139-0.518
			c0.44-0.139,0.937-0.207,1.488-0.207c1.227,0,2.135,0.381,2.725,1.145c0.592,0.764,0.887,1.779,0.887,3.049v6.639
			c0,0.301,0.053,0.545,0.156,0.73s0.279,0.33,0.53,0.434c0.207,0.086,0.386,0.146,0.537,0.182c0.151,0.033,0.36,0.061,0.628,0.076
			V464.629z"/>
		<path fill="#FFFFFF" d="M519.508,464.395l-4.465,0.285l-0.195-0.182v-1.189l-0.103-0.025c-0.448,0.5-1.002,0.91-1.661,1.229
			s-1.338,0.479-2.035,0.479c-0.725,0-1.424-0.162-2.102-0.484c-0.676-0.324-1.264-0.779-1.764-1.365
			c-0.508-0.596-0.911-1.313-1.209-2.148c-0.297-0.838-0.445-1.76-0.445-2.77c0-0.924,0.159-1.799,0.479-2.627
			c0.318-0.828,0.758-1.553,1.318-2.174c0.525-0.578,1.169-1.039,1.932-1.385s1.541-0.518,2.333-0.518
			c0.595,0,1.179,0.076,1.751,0.227c0.574,0.15,1.066,0.342,1.48,0.576v-4.449c0-0.361-0.061-0.693-0.182-0.99
			c-0.12-0.299-0.289-0.525-0.504-0.682c-0.242-0.164-0.568-0.283-0.978-0.355c-0.409-0.074-0.853-0.129-1.327-0.162v-0.803
			l5.229-0.285l0.195,0.193v17.201c0,0.301,0.059,0.559,0.175,0.77s0.286,0.389,0.511,0.535c0.164,0.104,0.402,0.168,0.713,0.195
			c0.311,0.025,0.595,0.043,0.854,0.051V464.395z M514.822,462.156v-7.467c-0.068-0.225-0.181-0.465-0.336-0.725
			c-0.154-0.258-0.349-0.496-0.581-0.711c-0.249-0.217-0.542-0.395-0.878-0.537s-0.729-0.215-1.176-0.215
			c-0.518,0-0.993,0.135-1.428,0.402c-0.436,0.268-0.82,0.65-1.156,1.15c-0.318,0.484-0.57,1.1-0.756,1.846
			s-0.277,1.572-0.277,2.477c0,0.727,0.068,1.383,0.207,1.975c0.137,0.592,0.369,1.141,0.697,1.65
			c0.301,0.482,0.687,0.871,1.156,1.164c0.469,0.293,1.027,0.439,1.673,0.439c0.688,0,1.259-0.15,1.712-0.453
			C514.131,462.852,514.512,462.52,514.822,462.156z"/>
		<path fill="#FFFFFF" d="M534.432,464.395l-4.166,0.285l-0.195-0.182v-1.617h-0.078c-0.207,0.217-0.439,0.447-0.697,0.693
			c-0.26,0.246-0.556,0.467-0.892,0.666c-0.388,0.232-0.763,0.41-1.124,0.531c-0.362,0.119-0.875,0.18-1.538,0.18
			c-1.128,0-1.987-0.367-2.578-1.104c-0.591-0.738-0.885-1.809-0.885-3.213v-6.102c0-0.311-0.06-0.572-0.177-0.783
			s-0.288-0.395-0.514-0.549c-0.156-0.104-0.352-0.18-0.586-0.227c-0.235-0.047-0.482-0.08-0.743-0.098v-0.854l4.259-0.311
			l0.193,0.182v8.865c0,0.922,0.207,1.617,0.621,2.082c0.415,0.467,0.911,0.699,1.489,0.699c0.475,0,0.897-0.072,1.269-0.219
			s0.682-0.32,0.932-0.518c0.232-0.182,0.438-0.373,0.615-0.576c0.176-0.201,0.313-0.389,0.408-0.561v-7.227
			c0-0.283-0.061-0.535-0.182-0.756c-0.121-0.219-0.289-0.406-0.506-0.563c-0.154-0.104-0.386-0.166-0.691-0.188
			c-0.307-0.021-0.65-0.041-1.029-0.059v-0.854l4.646-0.311l0.193,0.182v10.121c0,0.293,0.061,0.543,0.182,0.75
			s0.289,0.383,0.506,0.529c0.154,0.096,0.34,0.158,0.557,0.188c0.215,0.031,0.453,0.051,0.711,0.059V464.395z"/>
		<path fill="#FFFFFF" d="M544.424,458.377c0.354,0.311,0.625,0.67,0.816,1.074c0.189,0.406,0.283,0.902,0.283,1.488
			c0,1.184-0.441,2.148-1.326,2.9c-0.885,0.75-2.029,1.125-3.436,1.125c-0.742,0-1.426-0.135-2.053-0.4
			c-0.625-0.268-1.072-0.514-1.34-0.738l-0.258,0.842h-0.971l-0.129-4.439h0.893c0.068,0.338,0.215,0.732,0.439,1.182
			c0.225,0.451,0.496,0.857,0.816,1.221c0.336,0.381,0.738,0.701,1.209,0.961s1,0.389,1.586,0.389c0.828,0,1.467-0.188,1.916-0.564
			c0.449-0.379,0.672-0.918,0.672-1.621c0-0.363-0.07-0.676-0.213-0.939c-0.143-0.262-0.352-0.492-0.627-0.691
			c-0.285-0.199-0.635-0.377-1.049-0.537s-0.877-0.316-1.385-0.473c-0.406-0.121-0.857-0.287-1.354-0.498s-0.92-0.459-1.273-0.744
			c-0.381-0.303-0.691-0.674-0.934-1.113c-0.24-0.439-0.361-0.957-0.361-1.553c0-1.043,0.389-1.928,1.164-2.652
			c0.777-0.725,1.816-1.088,3.119-1.088c0.502,0,1.012,0.064,1.535,0.195c0.521,0.129,0.945,0.283,1.273,0.465l0.299-0.672h0.932
			l0.193,4.102h-0.893c-0.182-0.918-0.572-1.666-1.172-2.242s-1.33-0.863-2.193-0.863c-0.707,0-1.264,0.178-1.67,0.533
			c-0.404,0.357-0.607,0.787-0.607,1.291c0,0.389,0.066,0.711,0.199,0.971c0.135,0.258,0.336,0.479,0.604,0.66
			c0.258,0.172,0.584,0.334,0.977,0.484c0.393,0.152,0.877,0.322,1.457,0.512c0.568,0.182,1.105,0.393,1.611,0.635
			C543.68,457.816,544.096,458.084,544.424,458.377z"/>
		<path fill="#FFFFFF" d="M555.336,464.072c-0.561,0.232-1.092,0.43-1.592,0.588c-0.502,0.16-1.113,0.24-1.838,0.24
			c-1.07,0-1.824-0.27-2.26-0.809s-0.652-1.301-0.652-2.285v-8.645h-2.305v-1.242h2.355v-3.973h2.355v3.973h3.664v1.242h-3.639
			v7.131c0,0.535,0.02,0.982,0.059,1.34s0.133,0.67,0.279,0.938c0.137,0.25,0.344,0.441,0.621,0.57
			c0.275,0.129,0.646,0.193,1.113,0.193c0.215,0,0.531-0.02,0.951-0.059c0.418-0.039,0.713-0.088,0.887-0.148V464.072z"/>
		<path fill="#FFFFFF" d="M566.377,453.512c0,0.439-0.107,0.83-0.324,1.172c-0.215,0.34-0.547,0.512-0.996,0.512
			c-0.484,0-0.854-0.125-1.107-0.377c-0.254-0.25-0.381-0.525-0.381-0.828c0-0.189,0.014-0.361,0.045-0.518
			c0.029-0.154,0.059-0.311,0.084-0.465c-0.406,0-0.881,0.164-1.424,0.492c-0.543,0.326-1.006,0.793-1.385,1.396v7.428
			c0,0.303,0.059,0.549,0.174,0.738c0.117,0.189,0.301,0.332,0.551,0.428c0.215,0.086,0.494,0.15,0.834,0.193
			c0.342,0.043,0.637,0.074,0.887,0.09v0.855h-6.73v-0.855c0.199-0.016,0.404-0.033,0.615-0.051s0.395-0.051,0.551-0.104
			c0.24-0.078,0.42-0.213,0.537-0.406c0.115-0.195,0.174-0.447,0.174-0.758v-7.871c0-0.268-0.063-0.529-0.188-0.789
			c-0.125-0.258-0.299-0.465-0.523-0.619c-0.164-0.104-0.359-0.18-0.582-0.227c-0.225-0.047-0.467-0.08-0.727-0.098v-0.854
			l4.246-0.285l0.182,0.182v1.799h0.064c0.535-0.699,1.131-1.23,1.787-1.592c0.654-0.363,1.254-0.543,1.799-0.543
			c0.543,0,0.984,0.176,1.326,0.529S566.377,452.916,566.377,453.512z"/>
		<path fill="#FFFFFF" d="M566.492,468.795c0-0.432,0.119-0.783,0.357-1.055c0.236-0.271,0.531-0.406,0.885-0.406
			c0.277,0,0.514,0.051,0.713,0.152c0.197,0.104,0.375,0.236,0.531,0.398c0.129,0.129,0.266,0.305,0.414,0.527
			c0.146,0.223,0.262,0.406,0.348,0.551c0.432-0.232,0.947-0.838,1.547-1.82c0.6-0.98,1.033-1.842,1.301-2.582
			c-0.818-2.045-1.561-3.873-2.225-5.484c-0.666-1.613-1.359-3.283-2.084-5.008c-0.164-0.396-0.439-0.705-0.828-0.926
			c-0.389-0.219-0.777-0.359-1.166-0.42v-0.854h5.828v0.904c-0.26,0.01-0.57,0.064-0.934,0.162c-0.361,0.1-0.543,0.215-0.543,0.344
			c0,0.051,0.02,0.137,0.059,0.258s0.084,0.246,0.137,0.375c0.326,0.854,0.826,2.084,1.496,3.691
			c0.672,1.607,1.191,2.895,1.563,3.859c0.389-0.922,0.793-1.877,1.211-2.863c0.42-0.986,0.889-2.152,1.406-3.498
			c0.061-0.164,0.146-0.389,0.26-0.678c0.111-0.289,0.168-0.537,0.168-0.744c0-0.225-0.195-0.434-0.588-0.627
			s-0.768-0.313-1.121-0.355v-0.828h4.74v0.801c-0.258,0.045-0.6,0.193-1.021,0.447c-0.424,0.254-0.738,0.615-0.945,1.08
			c-1.027,2.381-1.939,4.551-2.738,6.51s-1.404,3.4-1.818,4.322c-0.543,1.209-1.029,2.15-1.455,2.828
			c-0.428,0.678-0.844,1.209-1.25,1.598c-0.396,0.363-0.758,0.605-1.08,0.732c-0.324,0.125-0.658,0.188-1.004,0.188
			c-0.674,0-1.201-0.16-1.586-0.48C566.686,469.576,566.492,469.209,566.492,468.795z"/>
		<path fill="#FFFFFF" d="M593.092,464.629h-6.162v-0.855c0.199-0.016,0.404-0.033,0.615-0.051s0.395-0.051,0.551-0.104
			c0.24-0.078,0.42-0.213,0.537-0.406c0.115-0.195,0.174-0.447,0.174-0.758v-7.871c0-0.275-0.063-0.527-0.188-0.756
			s-0.301-0.42-0.523-0.576c-0.164-0.102-0.402-0.191-0.713-0.264c-0.311-0.074-0.596-0.119-0.854-0.137v-0.854l4.504-0.285
			l0.182,0.182v10.404c0,0.303,0.057,0.553,0.174,0.75c0.115,0.199,0.297,0.346,0.545,0.441c0.189,0.076,0.373,0.141,0.553,0.188
			s0.383,0.08,0.605,0.096V464.629z M591.473,446.68c0,0.492-0.162,0.92-0.484,1.287c-0.324,0.367-0.723,0.551-1.197,0.551
			c-0.441,0-0.822-0.176-1.146-0.525c-0.322-0.35-0.484-0.748-0.484-1.197c0-0.475,0.162-0.889,0.484-1.242
			c0.324-0.354,0.705-0.529,1.146-0.529c0.492,0,0.895,0.166,1.209,0.498C591.316,445.854,591.473,446.238,591.473,446.68z"/>
		<path fill="#FFFFFF" d="M608.766,464.629h-6.238v-0.855c0.199-0.016,0.416-0.033,0.654-0.051c0.236-0.018,0.434-0.053,0.588-0.104
			c0.242-0.078,0.422-0.213,0.537-0.408c0.117-0.193,0.176-0.445,0.176-0.756v-6.563c0-0.904-0.215-1.604-0.643-2.096
			s-0.949-0.738-1.564-0.738c-0.457,0-0.877,0.072-1.258,0.215c-0.381,0.141-0.717,0.316-1.012,0.523
			c-0.285,0.199-0.512,0.412-0.682,0.641c-0.168,0.229-0.291,0.412-0.369,0.551v7.336c0,0.295,0.061,0.535,0.182,0.725
			c0.121,0.191,0.301,0.338,0.543,0.441c0.182,0.086,0.377,0.15,0.59,0.193c0.211,0.043,0.428,0.074,0.652,0.09v0.855h-6.252v-0.855
			c0.199-0.016,0.404-0.033,0.615-0.051s0.395-0.051,0.551-0.104c0.24-0.078,0.42-0.213,0.537-0.406
			c0.115-0.195,0.174-0.447,0.174-0.758v-7.871c0-0.293-0.063-0.563-0.188-0.809c-0.125-0.244-0.299-0.445-0.523-0.6
			c-0.164-0.104-0.359-0.18-0.582-0.227c-0.225-0.047-0.467-0.08-0.727-0.098v-0.854l4.246-0.285l0.182,0.182v1.799h0.064
			c0.207-0.207,0.467-0.455,0.777-0.744s0.604-0.523,0.879-0.705c0.32-0.207,0.699-0.379,1.141-0.518
			c0.439-0.139,0.936-0.207,1.488-0.207c1.225,0,2.133,0.381,2.725,1.145c0.59,0.764,0.887,1.779,0.887,3.049v6.639
			c0,0.301,0.051,0.545,0.154,0.73s0.281,0.33,0.531,0.434c0.207,0.086,0.385,0.146,0.537,0.182c0.15,0.033,0.359,0.061,0.627,0.076
			V464.629z"/>
		<path fill="#FFFFFF" d="M632,451.248h-0.893c-0.078-0.311-0.219-0.68-0.422-1.107s-0.432-0.83-0.682-1.209
			c-0.26-0.398-0.543-0.744-0.85-1.043c-0.307-0.297-0.604-0.467-0.889-0.51c-0.268-0.035-0.605-0.061-1.012-0.078
			s-0.783-0.025-1.129-0.025h-0.752v14.688c0,0.285,0.061,0.545,0.182,0.783c0.119,0.236,0.332,0.42,0.633,0.549
			c0.156,0.061,0.48,0.143,0.979,0.246c0.496,0.104,0.881,0.16,1.158,0.168v0.92h-8.672v-0.92c0.24-0.016,0.609-0.051,1.105-0.104
			c0.496-0.051,0.84-0.115,1.029-0.193c0.285-0.111,0.494-0.273,0.627-0.486c0.135-0.211,0.201-0.492,0.201-0.848v-14.803h-0.75
			c-0.268,0-0.6,0.006-0.996,0.018c-0.398,0.014-0.777,0.041-1.141,0.086c-0.283,0.033-0.58,0.203-0.887,0.51
			c-0.305,0.307-0.588,0.654-0.848,1.043c-0.258,0.387-0.486,0.799-0.686,1.234s-0.336,0.797-0.414,1.082h-0.906v-4.982H632V451.248
			z"/>
		<path fill="#FFFFFF" d="M647.014,464.629h-6.277v-0.855c0.199-0.016,0.418-0.033,0.66-0.051s0.439-0.053,0.596-0.104
			c0.242-0.078,0.42-0.213,0.537-0.408c0.117-0.193,0.174-0.445,0.174-0.756v-6.563c0-0.904-0.213-1.604-0.641-2.096
			c-0.43-0.492-0.951-0.738-1.564-0.738c-0.449,0-0.867,0.072-1.252,0.215c-0.385,0.141-0.729,0.316-1.031,0.523
			c-0.293,0.215-0.52,0.432-0.674,0.646c-0.156,0.217-0.277,0.396-0.363,0.545v7.336c0,0.295,0.057,0.535,0.174,0.725
			c0.117,0.191,0.295,0.338,0.537,0.441c0.189,0.086,0.387,0.15,0.59,0.193c0.201,0.043,0.424,0.074,0.666,0.09v0.855h-6.252v-0.855
			c0.197-0.016,0.402-0.035,0.617-0.057s0.395-0.055,0.541-0.098c0.238-0.078,0.418-0.213,0.539-0.408
			c0.119-0.193,0.18-0.447,0.18-0.758v-14.867c0-0.293-0.066-0.586-0.201-0.881c-0.133-0.293-0.309-0.514-0.523-0.66
			c-0.156-0.111-0.43-0.191-0.822-0.238c-0.393-0.049-0.709-0.08-0.951-0.098v-0.828l4.725-0.285l0.182,0.193v8.904h0.051
			c0.285-0.285,0.545-0.537,0.777-0.758c0.234-0.219,0.541-0.449,0.922-0.691c0.328-0.207,0.715-0.379,1.16-0.518
			s0.943-0.207,1.496-0.207c1.143,0,2.02,0.359,2.633,1.08s0.92,1.758,0.92,3.113v6.639c0,0.301,0.055,0.545,0.164,0.73
			c0.107,0.186,0.289,0.33,0.541,0.434c0.199,0.078,0.379,0.135,0.541,0.174c0.16,0.039,0.371,0.068,0.631,0.084V464.629z"/>
		<path fill="#FFFFFF" d="M659.893,461.627c-0.535,1.018-1.252,1.828-2.148,2.432c-0.898,0.604-1.93,0.906-3.094,0.906
			c-1.027,0-1.928-0.182-2.699-0.543c-0.771-0.363-1.408-0.855-1.908-1.477c-0.502-0.621-0.875-1.346-1.121-2.174
			s-0.369-1.703-0.369-2.627c0-0.828,0.133-1.641,0.396-2.439c0.262-0.797,0.648-1.516,1.158-2.154
			c0.49-0.613,1.102-1.105,1.83-1.482c0.73-0.375,1.547-0.563,2.453-0.563c0.932,0,1.73,0.146,2.395,0.439
			c0.664,0.295,1.203,0.695,1.619,1.205c0.396,0.482,0.691,1.053,0.887,1.707c0.193,0.656,0.291,1.367,0.291,2.137v0.854h-8.453
			c0,0.838,0.08,1.6,0.24,2.283c0.158,0.682,0.412,1.283,0.756,1.803c0.338,0.5,0.777,0.896,1.32,1.186
			c0.545,0.291,1.191,0.436,1.941,0.436c0.77,0,1.432-0.18,1.988-0.541c0.557-0.359,1.094-1.008,1.611-1.943L659.893,461.627z
			 M657.031,456.76c0-0.48-0.041-0.998-0.123-1.547c-0.082-0.551-0.213-1.012-0.395-1.381c-0.199-0.396-0.471-0.719-0.814-0.969
			c-0.346-0.248-0.791-0.373-1.334-0.373c-0.906,0-1.658,0.375-2.258,1.129c-0.602,0.752-0.926,1.799-0.979,3.141H657.031z"/>
		<path fill="#FFFFFF" d="M690.205,464.629h-8.115v-0.92c0.293-0.008,0.67-0.039,1.133-0.09c0.461-0.053,0.779-0.125,0.951-0.221
			c0.268-0.164,0.463-0.352,0.588-0.563s0.189-0.477,0.189-0.795v-13.355h-0.195l-6.264,15.645h-0.648l-5.967-15.969h-0.168v10.961
			c0,1.061,0.066,1.869,0.201,2.42c0.133,0.553,0.338,0.949,0.615,1.191c0.189,0.182,0.582,0.354,1.178,0.518
			s0.982,0.25,1.164,0.258v0.92h-7.416v-0.92c0.389-0.033,0.795-0.098,1.223-0.193s0.758-0.238,0.99-0.428
			c0.303-0.24,0.51-0.611,0.621-1.113c0.113-0.5,0.168-1.336,0.168-2.51v-9.395c0-0.545-0.064-0.988-0.193-1.334
			c-0.129-0.344-0.314-0.625-0.557-0.84c-0.268-0.234-0.596-0.406-0.984-0.518c-0.389-0.113-0.771-0.178-1.152-0.195v-0.918h6.264
			l5.262,13.783l4.49-11.531c0.164-0.422,0.305-0.865,0.42-1.326c0.117-0.463,0.18-0.771,0.188-0.926h5.99v0.918
			c-0.242,0.01-0.551,0.047-0.926,0.117c-0.375,0.068-0.648,0.133-0.822,0.193c-0.293,0.104-0.492,0.277-0.596,0.518
			c-0.104,0.242-0.154,0.506-0.154,0.789v13.24c0,0.301,0.051,0.555,0.154,0.764c0.104,0.207,0.303,0.387,0.596,0.543
			c0.156,0.086,0.432,0.166,0.828,0.238c0.398,0.074,0.713,0.115,0.945,0.123V464.629z"/>
		<path fill="#FFFFFF" d="M704.793,458.119c0,0.896-0.143,1.779-0.428,2.646s-0.691,1.604-1.217,2.207
			c-0.598,0.689-1.287,1.203-2.074,1.539c-0.785,0.336-1.666,0.506-2.643,0.506c-0.813,0-1.586-0.154-2.32-0.461
			c-0.734-0.305-1.385-0.752-1.955-1.338c-0.563-0.578-1.01-1.283-1.342-2.117c-0.332-0.832-0.498-1.766-0.498-2.801
			c0-1.994,0.58-3.625,1.742-4.893s2.684-1.902,4.566-1.902c1.789,0,3.264,0.602,4.426,1.805
			C704.213,454.516,704.793,456.117,704.793,458.119z M702.113,458.145c0-0.646-0.064-1.33-0.193-2.051
			c-0.131-0.721-0.324-1.33-0.584-1.832c-0.277-0.533-0.641-0.963-1.09-1.287c-0.449-0.322-0.998-0.484-1.646-0.484
			c-0.666,0-1.234,0.164-1.705,0.492c-0.471,0.326-0.854,0.775-1.146,1.346c-0.277,0.525-0.473,1.125-0.584,1.799
			c-0.113,0.672-0.17,1.324-0.17,1.953c0,0.828,0.068,1.594,0.201,2.297c0.135,0.703,0.348,1.332,0.643,1.883
			c0.293,0.553,0.664,0.986,1.109,1.301s0.996,0.473,1.652,0.473c1.08,0,1.938-0.521,2.568-1.566
			C701.799,461.424,702.113,459.982,702.113,458.145z"/>
		<path fill="#FFFFFF" d="M714.514,464.072c-0.561,0.232-1.092,0.43-1.592,0.588c-0.502,0.16-1.113,0.24-1.838,0.24
			c-1.07,0-1.824-0.27-2.26-0.809s-0.652-1.301-0.652-2.285v-8.645h-2.305v-1.242h2.355v-3.973h2.355v3.973h3.664v1.242h-3.639
			v7.131c0,0.535,0.02,0.982,0.059,1.34s0.133,0.67,0.279,0.938c0.137,0.25,0.344,0.441,0.621,0.57
			c0.275,0.129,0.646,0.193,1.113,0.193c0.215,0,0.531-0.02,0.951-0.059c0.418-0.039,0.713-0.088,0.887-0.148V464.072z"/>
		<path fill="#FFFFFF" d="M728.234,458.119c0,0.896-0.143,1.779-0.428,2.646s-0.691,1.604-1.219,2.207
			c-0.596,0.689-1.287,1.203-2.072,1.539c-0.787,0.336-1.668,0.506-2.645,0.506c-0.811,0-1.584-0.154-2.318-0.461
			c-0.734-0.305-1.387-0.752-1.957-1.338c-0.561-0.578-1.008-1.283-1.342-2.117c-0.332-0.832-0.498-1.766-0.498-2.801
			c0-1.994,0.582-3.625,1.742-4.893c1.162-1.268,2.686-1.902,4.568-1.902c1.787,0,3.262,0.602,4.424,1.805
			C727.652,454.516,728.234,456.117,728.234,458.119z M725.555,458.145c0-0.646-0.064-1.33-0.195-2.051
			c-0.129-0.721-0.324-1.33-0.584-1.832c-0.275-0.533-0.639-0.963-1.088-1.287c-0.449-0.322-0.998-0.484-1.646-0.484
			c-0.666,0-1.234,0.164-1.705,0.492c-0.473,0.326-0.855,0.775-1.148,1.346c-0.277,0.525-0.471,1.125-0.584,1.799
			c-0.111,0.672-0.168,1.324-0.168,1.953c0,0.828,0.066,1.594,0.201,2.297c0.133,0.703,0.348,1.332,0.643,1.883
			c0.293,0.553,0.662,0.986,1.107,1.301s0.996,0.473,1.654,0.473c1.08,0,1.936-0.521,2.566-1.566
			C725.238,461.424,725.555,459.982,725.555,458.145z"/>
		<path fill="#FFFFFF" d="M739.844,453.512c0,0.439-0.107,0.83-0.324,1.172c-0.215,0.34-0.547,0.512-0.996,0.512
			c-0.484,0-0.854-0.125-1.107-0.377c-0.254-0.25-0.381-0.525-0.381-0.828c0-0.189,0.014-0.361,0.045-0.518
			c0.029-0.154,0.059-0.311,0.084-0.465c-0.406,0-0.881,0.164-1.424,0.492c-0.543,0.326-1.006,0.793-1.385,1.396v7.428
			c0,0.303,0.059,0.549,0.174,0.738c0.117,0.189,0.301,0.332,0.551,0.428c0.215,0.086,0.494,0.15,0.834,0.193
			c0.342,0.043,0.637,0.074,0.887,0.09v0.855h-6.73v-0.855c0.199-0.016,0.404-0.033,0.615-0.051s0.395-0.051,0.551-0.104
			c0.24-0.078,0.42-0.213,0.537-0.406c0.115-0.195,0.174-0.447,0.174-0.758v-7.871c0-0.268-0.063-0.529-0.188-0.789
			c-0.125-0.258-0.299-0.465-0.523-0.619c-0.164-0.104-0.359-0.18-0.582-0.227c-0.225-0.047-0.467-0.08-0.727-0.098v-0.854
			l4.246-0.285l0.182,0.182v1.799h0.064c0.535-0.699,1.131-1.23,1.787-1.592c0.654-0.363,1.254-0.543,1.799-0.543
			c0.543,0,0.984,0.176,1.326,0.529S739.844,452.916,739.844,453.512z"/>
		<path fill="#FFFFFF" d="M755.744,465.068c-1.096,0-2.145-0.217-3.148-0.646c-1.006-0.432-1.895-1.055-2.672-1.865
			c-0.768-0.813-1.379-1.803-1.836-2.973s-0.686-2.488-0.686-3.955c0-1.469,0.225-2.801,0.672-3.996
			c0.449-1.195,1.07-2.225,1.863-3.088c0.783-0.855,1.711-1.516,2.779-1.982c1.07-0.465,2.211-0.699,3.428-0.699
			c0.904,0,1.725,0.113,2.457,0.338c0.732,0.223,1.43,0.539,2.094,0.943l0.531-0.879h1.035l0.117,6.547h-1.063
			c-0.137-0.637-0.344-1.33-0.621-2.076c-0.275-0.746-0.598-1.379-0.969-1.896c-0.414-0.586-0.904-1.045-1.475-1.377
			c-0.568-0.332-1.219-0.5-1.951-0.5c-0.836,0-1.613,0.188-2.334,0.559c-0.719,0.371-1.342,0.918-1.867,1.645
			c-0.5,0.699-0.893,1.588-1.178,2.668c-0.283,1.078-0.426,2.283-0.426,3.613c0,1.174,0.148,2.252,0.445,3.23
			c0.299,0.98,0.723,1.842,1.273,2.584c0.553,0.734,1.205,1.309,1.959,1.723s1.598,0.621,2.527,0.621
			c0.699,0,1.342-0.109,1.928-0.33c0.586-0.219,1.094-0.51,1.525-0.873c0.43-0.379,0.811-0.811,1.137-1.293
			c0.328-0.484,0.596-1.01,0.803-1.58l0.971,0.467c-0.742,1.82-1.725,3.121-2.949,3.9
			C758.891,464.678,757.434,465.068,755.744,465.068z"/>
		<path fill="#FFFFFF" d="M770.533,464.629h-6.162v-0.855c0.199-0.016,0.404-0.033,0.615-0.051s0.395-0.051,0.551-0.104
			c0.24-0.078,0.42-0.213,0.537-0.406c0.115-0.195,0.174-0.447,0.174-0.758v-7.871c0-0.275-0.063-0.527-0.188-0.756
			s-0.301-0.42-0.523-0.576c-0.164-0.102-0.402-0.191-0.713-0.264c-0.311-0.074-0.596-0.119-0.854-0.137v-0.854l4.504-0.285
			l0.182,0.182v10.404c0,0.303,0.057,0.553,0.174,0.75c0.115,0.199,0.297,0.346,0.545,0.441c0.189,0.076,0.373,0.141,0.553,0.188
			s0.383,0.08,0.605,0.096V464.629z M768.914,446.68c0,0.492-0.162,0.92-0.484,1.287c-0.324,0.367-0.723,0.551-1.197,0.551
			c-0.441,0-0.822-0.176-1.146-0.525c-0.322-0.35-0.484-0.748-0.484-1.197c0-0.475,0.162-0.889,0.484-1.242
			c0.324-0.354,0.705-0.529,1.146-0.529c0.492,0,0.895,0.166,1.209,0.498C768.758,445.854,768.914,446.238,768.914,446.68z"/>
		<path fill="#FFFFFF" d="M779.994,464.072c-0.561,0.232-1.092,0.43-1.592,0.588c-0.5,0.16-1.113,0.24-1.838,0.24
			c-1.07,0-1.822-0.27-2.258-0.809s-0.654-1.301-0.654-2.285v-8.645h-2.305v-1.242h2.357v-3.973h2.355v3.973h3.662v1.242h-3.637
			v7.131c0,0.535,0.02,0.982,0.059,1.34s0.131,0.67,0.277,0.938c0.139,0.25,0.346,0.441,0.621,0.57
			c0.277,0.129,0.648,0.193,1.113,0.193c0.217,0,0.533-0.02,0.951-0.059c0.42-0.039,0.715-0.088,0.887-0.148V464.072z"/>
		<path fill="#FFFFFF" d="M780.291,468.795c0-0.432,0.119-0.783,0.357-1.055c0.236-0.271,0.531-0.406,0.885-0.406
			c0.277,0,0.514,0.051,0.713,0.152c0.197,0.104,0.375,0.236,0.531,0.398c0.129,0.129,0.266,0.305,0.414,0.527
			c0.146,0.223,0.262,0.406,0.348,0.551c0.432-0.232,0.947-0.838,1.547-1.82c0.6-0.98,1.033-1.842,1.301-2.582
			c-0.818-2.045-1.561-3.873-2.225-5.484c-0.666-1.613-1.359-3.283-2.084-5.008c-0.164-0.396-0.439-0.705-0.828-0.926
			c-0.389-0.219-0.777-0.359-1.166-0.42v-0.854h5.828v0.904c-0.26,0.01-0.57,0.064-0.934,0.162c-0.361,0.1-0.543,0.215-0.543,0.344
			c0,0.051,0.02,0.137,0.059,0.258s0.084,0.246,0.137,0.375c0.326,0.854,0.826,2.084,1.496,3.691
			c0.672,1.607,1.191,2.895,1.563,3.859c0.389-0.922,0.793-1.877,1.211-2.863c0.42-0.986,0.889-2.152,1.406-3.498
			c0.061-0.164,0.146-0.389,0.26-0.678c0.111-0.289,0.168-0.537,0.168-0.744c0-0.225-0.195-0.434-0.588-0.627
			s-0.768-0.313-1.121-0.355v-0.828h4.74v0.801c-0.258,0.045-0.6,0.193-1.021,0.447c-0.424,0.254-0.738,0.615-0.945,1.08
			c-1.027,2.381-1.939,4.551-2.738,6.51s-1.404,3.4-1.818,4.322c-0.543,1.209-1.029,2.15-1.455,2.828
			c-0.428,0.678-0.844,1.209-1.25,1.598c-0.396,0.363-0.758,0.605-1.08,0.732c-0.324,0.125-0.658,0.188-1.004,0.188
			c-0.674,0-1.201-0.16-1.586-0.48C780.484,469.576,780.291,469.209,780.291,468.795z"/>
	</g>
	<g>
	</g>
</g>
<g id="Text">
	<g>
		<path d="M430.737,275.667l0.549,1.007l-11.143,8.238c2.183,0,4.411,0.549,6.685,1.647c2.274,1.098,3.993,2.624,5.155,4.576
			c1.163,1.953,1.744,3.997,1.744,6.133c0,3.397-1.175,6.666-3.524,9.809s-5.696,5.731-10.04,7.765
			c-4.344,2.034-8.438,3.051-12.282,3.051c-3.683,0-7.044-0.824-10.085-2.471c-3.042-1.647-5.29-3.712-6.744-6.194
			c-1.455-2.481-2.182-5.217-2.182-8.207c0-3.356,0.814-6.478,2.443-9.366c1.628-2.888,4.651-6.082,9.069-9.58l12.336-9.794
			c3.435,1.668,6.119,2.776,8.05,3.326c1.931,0.549,3.832,0.824,5.701,0.824C427.871,276.43,429.294,276.176,430.737,275.667z
			 M401.168,283.173c-2.34,2.4-3.982,4.658-4.928,6.773c-0.946,2.115-1.419,4.576-1.419,7.383c0,2.258,0.31,4.251,0.931,5.98
			c0.62,1.729,1.541,3.397,2.762,5.003c1.16-1.057,1.892-1.953,2.197-2.685c0.305-0.732,0.458-2.095,0.458-4.088V283.173z
			 M411.543,291.877c-1.627,0.78-2.97,1.571-4.028,2.371v5.128c0,1.567-0.112,2.621-0.335,3.16c-0.224,0.54-0.701,1.104-1.433,1.694
			c-0.447,0.346-0.813,0.631-1.097,0.854l-5.243,4.396c1.829,1.93,3.689,3.357,5.58,4.281c1.89,0.924,4.076,1.458,6.556,1.6V291.877
			z M408.034,277.559l-0.519,0.519v14.432l14.274-10.742C417.336,280.649,412.751,279.247,408.034,277.559z M412.886,298.611
			c1.424,0.977,2.726,1.668,3.906,2.075c1.179,0.407,2.481,0.61,3.906,0.61c1.302,0,2.502-0.163,3.601-0.488
			c1.099-0.325,2.492-0.966,4.181-1.922c-0.509-2.132-1.444-3.857-2.807-5.177c-2.218-2.153-4.985-3.23-8.3-3.23
			c-1.404,0-2.899,0.274-4.486,0.824V298.611z M412.886,307.093c2.543-1.363,4.954-2.044,7.232-2.044
			c2.197,0,4.526,0.621,6.988,1.861c1.038-2.156,1.556-4.21,1.556-6.163v-0.396c-1.831,0.928-3.306,1.546-4.425,1.854
			c-1.119,0.31-2.339,0.464-3.662,0.464c-1.262,0-2.533-0.195-3.814-0.587s-2.574-0.969-3.875-1.731V307.093z M412.886,315.33
			c1.892-0.102,3.438-0.366,4.638-0.793c1.831-0.63,3.56-1.545,5.188-2.746c1.22-0.895,2.461-2.136,3.723-3.722
			c-2.462-1.017-4.638-1.525-6.53-1.525c-2.299,0-4.638,0.671-7.019,2.014V315.33z"/>
		<path d="M451.396,285.37l8.605,10.038l-13.671,9.58v5.553l7.08,2.807l4.791-3.265l0.671,0.916l-9.872,6.895
			c-2.017-1.078-3.678-1.851-4.981-2.319c-1.304-0.468-3.158-0.956-5.562-1.464v-0.763c0.691-0.407,1.154-0.91,1.388-1.51
			c0.234-0.6,0.351-1.896,0.351-3.89v-17.452c1.912-0.691,3.499-1.322,4.76-1.892C445.873,288.176,448.019,287.099,451.396,285.37z
			 M446.758,288.878l-0.427,0.213v13.854l8.038-5.633L446.758,288.878z"/>
		<path d="M481.988,285.37l4.164,4.577l2.977-2.868l0.869,0.824c-1.438,1.307-2.311,2.297-2.619,2.97
			c-0.41,0.898-0.615,2.133-0.615,3.706v14.546c0,1.347,0.215,2.348,0.643,3.001c0.266,0.429,0.563,0.643,0.89,0.643
			c0.286,0,0.96-0.397,2.022-1.19l0.748,0.946l-6.546,5.37c-1.695-1.272-2.782-2.398-3.263-3.378c-0.48-0.979-0.72-2.561-0.72-4.743
			v-16.695l-2.697-2.849l-5.206,4.178v16.927l2.289,2.182l-5.386,4.378l-5.416-4.378l2.289-2.182v-15.568
			c0-2.214-0.225-3.706-0.674-4.478c-0.307-0.528-0.654-0.792-1.042-0.792c-0.409,0-1.021,0.397-1.839,1.19l-0.748-0.946l6.484-5.37
			c1.797,1.337,2.92,2.394,3.369,3.17c0.449,0.777,0.674,1.855,0.674,3.235v1.1L481.988,285.37z"/>
		<path d="M511.74,285.37l4.623,5.538l-4.623,4.104l-3.856-4.885l-3.024,2.75v17.756l3.479,2.501l3.143-2.471l0.703,0.977
			l-7.828,6.254c-1.664-1.484-3.061-2.552-4.188-3.204c-1.127-0.651-2.361-1.159-3.701-1.525v-0.671
			c0.896-0.63,1.48-1.266,1.756-1.907c0.273-0.641,0.412-1.866,0.412-3.676v-12.448c0-1.566-0.176-2.608-0.523-3.127
			c-0.349-0.519-0.732-0.778-1.15-0.778c-0.458,0-1.086,0.407-1.882,1.221l-0.747-0.885l6.361-5.522
			c1.736,1.322,2.92,2.471,3.553,3.448c0.408,0.61,0.613,1.454,0.613,2.532L511.74,285.37z"/>
		<path d="M532.75,285.37l8.605,10.038l-13.671,9.58v5.553l7.079,2.807l4.791-3.265l0.672,0.916l-9.871,6.895
			c-2.018-1.078-3.678-1.851-4.982-2.319c-1.303-0.468-3.157-0.956-5.561-1.464v-0.763c0.691-0.407,1.154-0.91,1.388-1.51
			c0.233-0.6,0.351-1.896,0.351-3.89v-17.452c1.912-0.691,3.499-1.322,4.761-1.892C527.227,288.176,529.373,287.099,532.75,285.37z
			 M528.111,288.878l-0.427,0.213v13.854l8.038-5.633L528.111,288.878z"/>
		<path d="M560.086,296.685l7.085,3.696v12.845c-1.711,0.163-3.26,0.58-4.646,1.251c-1.386,0.671-2.955,1.811-4.707,3.417
			c-1.507-0.895-2.815-1.515-3.926-1.861c-1.109-0.345-2.285-0.519-3.527-0.519c-1.915,0-3.615,0.58-5.102,1.739
			c-0.55,0.427-0.947,0.641-1.191,0.641c-0.225,0-0.448-0.111-0.673-0.335c-0.224-0.224-0.335-0.448-0.335-0.672
			c0-0.244,0.213-0.57,0.64-0.977c0.243-0.244,0.66-0.712,1.25-1.405l2.775-3.448l3.931-5.222l-6.674-3.593v-11.38
			c2.1-0.651,3.745-1.378,4.938-2.182c1.192-0.803,2.339-1.907,3.439-3.31c2.604,1.098,4.699,1.872,6.286,2.319
			c1.14,0.305,2.228,0.458,3.266,0.458c1.144,0,2.032-0.249,2.666-0.748c0.633-0.498,0.949-1.022,0.949-1.571
			c0-0.366-0.203-0.732-0.61-1.098c-0.793-0.712-1.189-1.404-1.189-2.075c0-0.63,0.172-1.134,0.519-1.51
			c0.346-0.376,0.732-0.564,1.159-0.564c0.569,0,1.083,0.259,1.541,0.778s0.687,1.205,0.687,2.06c0,0.875-0.184,1.729-0.552,2.563
			c-0.367,0.834-1.072,1.912-2.113,3.234L560.086,296.685z M556.4,301.571l-7.355,9.854c0.896-0.305,1.729-0.528,2.503-0.671
			c0.772-0.142,1.475-0.214,2.105-0.214c2.339,0,4.771,0.773,7.293,2.319v-8.848L556.4,301.571z M551.15,298.793l4.179,2.166
			l6.653-8.851c-1.363,0.39-2.543,0.584-3.539,0.584c-2.503,0-4.934-0.833-7.293-2.502V298.793z"/>
	</g>
	<g>
	</g>
	<g>
	</g>
	<g>
	</g>
	<g>
	</g>
	<g>
	</g>
	<g>
	</g>
	<g>
	</g>
	<g>
	</g>
	<g>
	</g>
	<g>
	</g>
	<g>
	</g>
	<g>
	</g>
	<g>
	</g>
	<g>
	</g>
	<g>
	</g>
</g>
</svg>
